# ProBuilder 6.0.5
# https://unity3d.com/unity/features/worldbuilding/probuilder
# 08/06/2025 17:10:52

mtllib ./fireplace_collision.mtl
o fireplace_collision

g fireplace_collision
v 0.950135 -2.980232E-08 0
v 0.9501352 0.8905668 0
v 0.8928348 -2.980232E-08 0.3324398
v 0.8928347 0.8905668 0.3324398
v 0.7278456 -2.980232E-08 0.6247825
v 0.7278457 0.8905668 0.6247826
v 0.4750675 -2.980232E-08 0.8417673
v 0.4750676 0.8905668 0.8417673
v 0.1649892 -2.980232E-08 0.9572223
v 0.1649895 0.8905668 0.9572222
v -0.1649892 -2.980232E-08 0.9572223
v -0.164989 0.8905668 0.9572222
v -0.4750676 -2.980232E-08 0.8417672
v -0.4750676 0.8905668 0.8417671
v -0.7278456 -2.980232E-08 0.6247826
v -0.7278457 0.8905668 0.6247826
v -0.8928348 -2.980232E-08 0.3324399
v -0.8928347 0.8905668 0.3324399
v -0.950135 -2.980232E-08 -8.475035E-08
v -0.9501352 0.8905668 -5.960464E-08
v -0.8928348 -2.980232E-08 -0.3324398
v -0.8928347 0.8905668 -0.3324398
v -0.7278457 -2.980232E-08 -0.6247825
v -0.7278457 0.8905668 -0.6247825
v -0.4750674 -2.980232E-08 -0.8417673
v -0.4750676 0.8905668 -0.8417673
v -0.1649892 -2.980232E-08 -0.9572224
v -0.164989 0.8905668 -0.9572224
v 0.1649892 -2.980232E-08 -0.9572223
v 0.164989 0.8905668 -0.9572223
v 0.4750674 -2.980232E-08 -0.8417673
v 0.4750676 0.8905668 -0.8417673
v 0.7278455 -2.980232E-08 -0.6247826
v 0.7278457 0.8905668 -0.6247826
v 0.8928348 -2.980232E-08 -0.33244
v 0.8928347 0.8905668 -0.33244
v 0 -2.980232E-08 0
v 0.7485805 0.455367 0
v 0 0.455367 0
v 0.7034354 0.455367 0.2619184
v 0.5734458 0.455367 0.4922457
v 0.3742905 0.455367 0.6632011
v 0.1299896 0.455367 0.7541642
v -0.1299896 0.455367 0.7541642
v -0.3742905 0.455367 0.6632009
v -0.5734458 0.455367 0.4922457
v -0.7034354 0.455367 0.2619185
v -0.7485805 0.455367 -5.960464E-08
v -0.7034354 0.455367 -0.2619185
v -0.5734458 0.455367 -0.4922458
v -0.3742905 0.455367 -0.663201
v -0.1299896 0.455367 -0.7541643
v 0.1299896 0.455367 -0.7541643
v 0.3742905 0.455367 -0.663201
v 0.5734458 0.455367 -0.4922459
v 0.7034354 0.455367 -0.2619187
v 0.1299896 0.8905668 -0.7541643
v -0.1299896 0.8905668 -0.7541643
v 0.3742905 0.8905668 -0.663201
v -0.3742905 0.8905668 -0.663201
v -0.5734458 0.8905668 -0.4922458
v -0.7034354 0.8905668 -0.2619185
v -0.7485805 0.8905668 -5.960464E-08
v -0.7034354 0.8905668 0.2619185
v -0.5734458 0.8905668 0.4922457
v -0.3742905 0.8905668 0.6632009
v -0.1299896 0.8905668 0.7541642
v 0.1299896 0.8905668 0.7541642
v 0.3742905 0.8905668 0.6632011
v 0.5734458 0.8905668 0.4922457
v 0.7034354 0.8905668 0.2619184
v 0.7485805 0.8905668 0
v 0.7034354 0.8905668 -0.2619187
v 0.5734458 0.8905668 -0.4922459

vt -0.1613878 2.172247E-07
vt -0.1613879 0.890567
vt 0.175954 2.172247E-07
vt 0.175954 0.890567
vt -0.1493111 -2.098131E-07
vt -0.1493111 0.8905666
vt 0.1863758 -2.098131E-07
vt 0.1863758 0.8905666
vt -0.1453318 5.968247E-08
vt -0.1453318 0.8905669
vt 0.1878035 5.968247E-08
vt 0.1878035 0.8905669
vt -0.1514824 8.581004E-08
vt -0.1514825 0.8905669
vt 0.1793928 8.581004E-08
vt 0.1793925 0.8905669
vt -0.1649892 -1.57934E-07
vt -0.1649895 0.8905666
vt 0.1649892 -1.57934E-07
vt 0.164989 0.8905666
vt -0.1793929 -2.33159E-07
vt -0.1793931 0.8905666
vt 0.1514824 -2.33159E-07
vt 0.1514825 0.8905666
vt -0.1878033 -8.477213E-08
vt -0.1878032 0.8905667
vt 0.1453319 -8.477213E-08
vt 0.145332 0.8905667
vt -0.1863758 2.504248E-08
vt -0.1863758 0.8905668
vt 0.1493111 2.504248E-08
vt 0.149311 0.8905668
vt -0.1759542 -2.150726E-07
vt -0.1759542 0.8905666
vt 0.1613878 -2.150726E-07
vt 0.1613879 0.8905666
vt -0.950135 0
vt 0 0
vt -0.8928348 0.3324398
vt 0.7485805 0
vt 0.7034354 0.2619184
vt -0.7278456 0.6247825
vt 0.5734458 0.4922457
vt -0.4750675 0.8417673
vt 0.3742905 0.6632011
vt -0.1649892 0.9572223
vt 0.1299896 0.7541642
vt 0.1649892 0.9572223
vt -0.1299896 0.7541642
vt 0.4750676 0.8417672
vt -0.3742905 0.6632009
vt 0.7278456 0.6247826
vt -0.5734458 0.4922457
vt 0.8928348 0.3324399
vt -0.7034354 0.2619185
vt 0.950135 -8.475035E-08
vt -0.7485805 -5.960464E-08
vt 0.8928348 -0.3324398
vt -0.7034354 -0.2619185
vt 0.7278457 -0.6247825
vt -0.5734458 -0.4922458
vt 0.4750674 -0.8417673
vt -0.3742905 -0.663201
vt 0.1649892 -0.9572224
vt -0.1299896 -0.7541643
vt -0.1649892 -0.9572223
vt 0.1299896 -0.7541643
vt -0.4750674 -0.8417673
vt 0.3742905 -0.663201
vt -0.7278455 -0.6247826
vt 0.5734458 -0.4922459
vt -0.8928348 -0.33244
vt 0.7034354 -0.2619187
vt -0.1299896 0.8905668
vt 0.1299896 0.8905668
vt -0.1299896 0.455367
vt 0.1299896 0.455367
vt -0.1193486 0.8905668
vt 0.1413375 0.8905668
vt -0.1193486 0.455367
vt 0.1413375 0.455367
vt -0.1413375 0.8905668
vt 0.1193486 0.8905668
vt -0.1413375 0.455367
vt 0.1193486 0.455367
vt -0.1479647 0.8905668
vt 0.1145016 0.8905668
vt -0.1479647 0.455367
vt 0.1145016 0.455367
vt -0.1468394 0.8905668
vt 0.1176373 0.8905668
vt -0.1468394 0.455367
vt 0.1176373 0.455367
vt -0.1386282 0.8905668
vt 0.1271525 0.8905668
vt -0.1386282 0.455367
vt 0.1271525 0.455367
vt -0.1271525 0.8905668
vt 0.1386283 0.8905668
vt -0.1271525 0.455367
vt 0.1386283 0.455367
vt -0.1176375 0.8905668
vt 0.1468392 0.8905668
vt -0.1176375 0.455367
vt 0.1468392 0.455367
vt -0.1145017 0.8905668
vt 0.1479645 0.8905668
vt -0.1145017 0.455367
vt 0.1479645 0.455367

vn 1 -1.673222E-07 -2.872969E-07
vn 0.9420029 8.178694E-08 0.3356048
vn 0.7727545 -2.249651E-08 0.6347051
vn 0.5080285 -1.260476E-07 0.8613403
vn 0.177277 4.537782E-08 0.984161
vn -0.1772772 1.762312E-07 0.984161
vn -0.5080284 1.094657E-07 0.8613403
vn -0.7727542 -2.593878E-08 0.6347054
vn -0.942003 1.299862E-07 0.3356043
vn -1 -1.495986E-07 2.494947E-07
vn -0.9420029 7.32152E-08 -0.3356047
vn -0.7727543 4.438403E-08 -0.6347052
vn -0.5080286 -8.026026E-08 -0.8613402
vn -0.177277 -2.96628E-09 -0.984161
vn 0.1772772 3.856113E-08 -0.984161
vn 0.5080283 -7.897459E-08 -0.8613404
vn 0.7727542 -1.606913E-07 -0.6347054
vn 0.942003 5.215018E-08 -0.3356045
vn 0 -1 0
vn 0 1 0
vn 0 0 1
vn -0.3489381 0 0.9371458
vn 0.3489381 0 0.9371458
vn 0.6513417 0 0.7587845
vn 0.8708791 0 0.4914974
vn 0.9854685 0 0.1698582
vn 0.9854686 0 -0.1698581
vn 0.8708789 0 -0.4914976
vn 0.6513416 0 -0.7587846
vn 0.3489383 0 -0.9371457
vn 0 0 -1
vn -0.3489375 0 -0.937146
vn -0.6513422 0 -0.7587842
vn -0.8708791 0 -0.4914974
vn -0.9854685 0 -0.1698583
vn -0.9854686 0 0.1698581
vn -0.870879 0 0.4914974
vn -0.6513416 0 0.7587847

usemtl DefaultHDMaterial
f 3/39/19 37/38/19 1/37/19
f 5/42/19 37/38/19 3/39/19
f 7/44/19 37/38/19 5/42/19
f 9/46/19 37/38/19 7/44/19
f 11/48/19 37/38/19 9/46/19
f 13/50/19 37/38/19 11/48/19
f 15/52/19 37/38/19 13/50/19
f 17/54/19 37/38/19 15/52/19
f 19/56/19 37/38/19 17/54/19
f 21/58/19 37/38/19 19/56/19
f 23/60/19 37/38/19 21/58/19
f 25/62/19 37/38/19 23/60/19
f 27/64/19 37/38/19 25/62/19
f 29/66/19 37/38/19 27/64/19
f 31/68/19 37/38/19 29/66/19
f 33/70/19 37/38/19 31/68/19
f 35/72/19 37/38/19 33/70/19
f 1/37/19 37/38/19 35/72/19
f 38/40/20 39/38/20 40/41/20
f 40/41/20 39/38/20 41/43/20
f 41/43/20 39/38/20 42/45/20
f 42/45/20 39/38/20 43/47/20
f 43/47/20 39/38/20 44/49/20
f 44/49/20 39/38/20 45/51/20
f 45/51/20 39/38/20 46/53/20
f 46/53/20 39/38/20 47/55/20
f 47/55/20 39/38/20 48/57/20
f 48/57/20 39/38/20 49/59/20
f 49/59/20 39/38/20 50/61/20
f 50/61/20 39/38/20 51/63/20
f 51/63/20 39/38/20 52/65/20
f 52/65/20 39/38/20 53/67/20
f 53/67/20 39/38/20 54/69/20
f 54/69/20 39/38/20 55/71/20
f 55/71/20 39/38/20 56/73/20
f 56/73/20 39/38/20 38/40/20
f 1/1/1 2/2/1 4/4/2
f 4/4/2 3/3/2 1/1/1
f 3/5/2 4/6/2 6/8/3
f 6/8/3 5/7/3 3/5/2
f 5/9/3 6/10/3 8/12/4
f 8/12/4 7/11/4 5/9/3
f 7/13/4 8/14/4 10/16/5
f 10/16/5 9/15/5 7/13/4
f 9/17/5 10/18/5 12/20/6
f 12/20/6 11/19/6 9/17/5
f 11/21/6 12/22/6 14/24/7
f 14/24/7 13/23/7 11/21/6
f 13/25/7 14/26/7 16/28/8
f 16/28/8 15/27/8 13/25/7
f 15/29/8 16/30/8 18/32/9
f 18/32/9 17/31/9 15/29/8
f 17/33/9 18/34/9 20/36/10
f 20/36/10 19/35/10 17/33/9
f 19/1/10 20/2/10 22/4/11
f 22/4/11 21/3/11 19/1/10
f 21/5/11 22/6/11 24/8/12
f 24/8/12 23/7/12 21/5/11
f 23/9/12 24/10/12 26/12/13
f 26/12/13 25/11/13 23/9/12
f 25/13/13 26/14/13 28/16/14
f 28/16/14 27/15/14 25/13/13
f 27/17/14 28/18/14 30/20/15
f 30/20/15 29/19/15 27/17/14
f 29/21/15 30/22/15 32/24/16
f 32/24/16 31/23/16 29/21/15
f 31/25/16 32/26/16 34/28/17
f 34/28/17 33/27/17 31/25/16
f 33/29/17 34/30/17 36/32/18
f 36/32/18 35/31/18 33/29/17
f 35/33/18 36/34/18 2/36/1
f 2/36/1 1/35/1 35/33/18
f 30/64/20 28/66/20 58/65/20
f 58/65/20 57/67/20 30/64/20
f 32/62/20 30/64/20 57/67/20
f 57/67/20 59/69/20 32/62/20
f 28/66/20 26/68/20 60/63/20
f 60/63/20 58/65/20 28/66/20
f 26/68/20 24/70/20 61/61/20
f 61/61/20 60/63/20 26/68/20
f 24/70/20 22/72/20 62/59/20
f 62/59/20 61/61/20 24/70/20
f 22/72/20 20/37/20 63/57/20
f 63/57/20 62/59/20 22/72/20
f 20/37/20 18/39/20 64/55/20
f 64/55/20 63/57/20 20/37/20
f 18/39/20 16/42/20 65/53/20
f 65/53/20 64/55/20 18/39/20
f 16/42/20 14/44/20 66/51/20
f 66/51/20 65/53/20 16/42/20
f 14/44/20 12/46/20 67/49/20
f 67/49/20 66/51/20 14/44/20
f 12/46/20 10/48/20 68/47/20
f 68/47/20 67/49/20 12/46/20
f 10/48/20 8/50/20 69/45/20
f 69/45/20 68/47/20 10/48/20
f 8/50/20 6/52/20 70/43/20
f 70/43/20 69/45/20 8/50/20
f 6/52/20 4/54/20 71/41/20
f 71/41/20 70/43/20 6/52/20
f 4/54/20 2/56/20 72/40/20
f 72/40/20 71/41/20 4/54/20
f 2/56/20 36/58/20 73/73/20
f 73/73/20 72/40/20 2/56/20
f 36/58/20 34/60/20 74/71/20
f 74/71/20 73/73/20 36/58/20
f 34/60/20 32/62/20 59/69/20
f 59/69/20 74/71/20 34/60/20
f 57/74/21 58/75/21 52/77/21
f 52/77/21 53/76/21 57/74/21
f 59/78/22 57/79/22 53/81/22
f 53/81/22 54/80/22 59/78/22
f 58/82/23 60/83/23 51/85/23
f 51/85/23 52/84/23 58/82/23
f 60/86/24 61/87/24 50/89/24
f 50/89/24 51/88/24 60/86/24
f 61/90/25 62/91/25 49/93/25
f 49/93/25 50/92/25 61/90/25
f 62/94/26 63/95/26 48/97/26
f 48/97/26 49/96/26 62/94/26
f 63/98/27 64/99/27 47/101/27
f 47/101/27 48/100/27 63/98/27
f 64/102/28 65/103/28 46/105/28
f 46/105/28 47/104/28 64/102/28
f 65/106/29 66/107/29 45/109/29
f 45/109/29 46/108/29 65/106/29
f 66/78/30 67/79/30 44/81/30
f 44/81/30 45/80/30 66/78/30
f 67/74/31 68/75/31 43/77/31
f 43/77/31 44/76/31 67/74/31
f 68/82/32 69/83/32 42/85/32
f 42/85/32 43/84/32 68/82/32
f 69/86/33 70/87/33 41/89/33
f 41/89/33 42/88/33 69/86/33
f 70/90/34 71/91/34 40/93/34
f 40/93/34 41/92/34 70/90/34
f 71/94/35 72/95/35 38/97/35
f 38/97/35 40/96/35 71/94/35
f 72/98/36 73/99/36 56/101/36
f 56/101/36 38/100/36 72/98/36
f 73/102/37 74/103/37 55/105/37
f 55/105/37 56/104/37 73/102/37
f 74/106/38 59/107/38 54/109/38
f 54/109/38 55/108/38 74/106/38

