# Wavefront Obj file
# 
# verts: 419 uv-s: 781
mtllib petiteclef.mtl

g Volume8
#pivot 0.000000 0.000000 0.000000

v 11.976392 -43.501991 -102.638565
v -27.272112 -36.585373 -102.718575
v 37.740280 -27.936834 -99.610123
v -46.856232 -8.372910 -99.579407
v 44.421505 -25.102022 345.117157
v 52.357460 2.487650 345.091766
v 41.489525 30.963884 345.685760
v 21.129578 56.036530 344.464661
v -12.463819 50.600548 348.434387
v -38.093887 32.526596 349.334412
v 44.968800 8.095605 -99.733147
v -50.005772 -0.671420 350.778290
v -46.239063 -38.387447 295.155518
v -13.171955 -55.689919 301.639740
v -39.165237 26.437998 -99.176125
v 25.981270 38.146561 -99.881340
v -10.317031 44.494041 -101.502113
v -28.977552 -34.935696 -70.895203
v 19.037060 -57.771461 -73.278008
v 38.449684 -27.232941 -69.076782
v -47.524879 -6.311057 -70.519951
v 46.028381 9.132576 -69.024002
v -39.415573 28.048040 -70.249855
v 25.924282 39.743538 -69.417000
v -9.303262 47.159698 -69.673096
v -35.734646 -32.748352 -36.357143
v 18.564159 -52.518650 -33.036598
v -46.518024 -1.402608 -32.796001
v -37.651287 29.885900 -31.986563
v -7.910024 46.654858 -31.002026
v 39.765427 -24.860064 -31.150888
v 45.462574 10.556377 -29.936741
v 26.053699 38.999718 -30.380310
v -18.426228 -53.049751 3.083164
v -39.792309 -26.866909 9.961463
v -45.788296 2.359496 9.801775
v -35.285683 32.669971 12.014038
v 17.314100 -50.655788 8.844004
v 40.176689 -22.439491 13.370991
v 45.101662 10.556980 12.992402
v 26.468388 38.368458 13.478533
v -5.708293 46.318768 12.738945
v -1.276541 -50.400848 16.962730
v -1.450035 -47.110771 60.032318
v -25.251534 -42.165901 61.411293
v 22.566374 -43.581844 62.855824
v -42.418133 -21.639059 57.567463
v 42.800568 -20.925457 60.175400
v -47.446808 8.421240 60.366375
v 45.695736 10.658210 61.899239
v -32.718727 35.027241 60.035477
v -3.027874 46.990570 60.887512
v 27.924213 37.642361 60.911888
v 23.692543 -42.086445 110.126953
v -45.310986 -15.844159 111.650574
v 42.925999 -20.717764 112.294327
v -46.309242 12.428526 109.934525
v 45.790161 9.853853 110.582489
v -29.381060 37.572258 110.989738
v 0.095463 47.243702 110.797676
v -3.590679 -46.416599 113.541565
v -27.046053 -37.212509 109.180122
v 29.546024 36.361599 111.215401
v 22.300062 -42.296761 161.440842
v 45.882484 8.045518 160.665848
v -5.268345 -46.916901 159.624802
v -31.472078 -35.983646 161.151505
v 42.585136 -21.341805 159.895569
v -46.711903 -12.665007 159.468643
v -44.504669 16.473976 160.543503
v -26.037905 39.569397 160.125641
v 31.052162 34.330639 160.258148
v 3.413910 47.007988 160.543503
v -46.939838 -8.747622 206.301270
v -7.468884 -45.537960 206.776062
v 21.229807 -43.162331 206.305389
v -33.897461 -34.594769 205.735321
v 42.003998 -22.773376 206.924728
v 46.953381 6.252156 206.600403
v -43.918945 20.359938 205.878082
v 33.434261 32.923168 206.863831
v -23.278551 42.363842 206.637405
v 6.659949 47.053413 206.530182
v -9.380334 -44.026245 246.191925
v 18.832771 -41.775154 246.751648
v -34.921654 -31.624125 245.986755
v 40.079567 -23.645784 246.840500
v -47.097786 -5.603035 245.612793
v 45.755547 4.073163 247.204880
v -41.410625 23.039385 246.062469
v 34.561520 30.430769 246.948654
v -19.362535 42.067104 246.241043
v 9.761885 45.530186 246.861130
v -40.614025 25.781578 282.381958
v -12.499949 -52.827637 279.204803
v 21.147423 -50.888958 279.707764
v -42.359947 -35.889172 279.267426
v 46.575401 -29.119120 280.040985
v -48.084846 -2.327827 278.471863
v 55.274448 3.074063 280.235870
v 42.866814 34.341930 280.256348
v -19.557390 50.586014 279.401215
v 14.249471 52.652382 279.838531
v -12.143363 -49.700153 308.628937
v -39.986687 -33.053490 307.885590
v 45.076958 -28.682913 309.013947
v -51.208214 -1.436520 310.456451
v -42.917061 30.155001 309.845245
v -17.049166 50.538170 308.830627
v 15.305666 49.642609 308.393738
v 19.969091 -47.584904 308.341461
v 52.067680 1.437017 308.716309
v 40.929161 31.081482 308.786438
v -10.771331 -51.052361 332.351624
v 21.620449 -49.551083 334.838623
v -39.111759 -32.687469 335.123901
v 48.164188 -29.773384 333.807434
v 56.781719 2.297797 333.300110
v -52.181885 -1.478246 334.359436
v 44.764282 31.952572 332.150635
v -40.320786 32.020947 335.654419
v -14.928456 51.128147 332.608337
v 17.604729 51.617210 332.822510
v -8.370089 -50.141174 357.431000
v 20.470451 -42.101803 358.044037
v -33.940243 -33.986500 358.854889
v 41.726604 -21.471674 356.697144
v -44.447441 0.132918 363.419556
v 47.945396 2.588550 352.405060
v 37.758488 29.573645 353.381439
v -34.995342 32.023090 359.540161
v 16.383795 48.195545 353.868317
v -11.090096 48.832455 356.867462
v -2.786492 -51.319942 375.634491
v 19.279093 -33.250092 386.140472
v 43.160488 7.325744 367.917389
v 34.121761 26.794868 370.385223
v 38.921616 -10.365589 375.962830
v -28.437920 0.642388 383.650391
v -10.151318 56.187351 378.587646
v -20.262184 -35.281540 385.234589
v 25.293850 17.027071 381.118011
v -22.368782 38.448872 388.243347
v -0.844893 -75.204117 385.749603
v 0.310425 1.552474 675.450317
v -0.832353 63.430851 665.700378
v -27.283400 29.863047 667.983582
v 26.314537 30.613731 668.989563
v -0.412483 31.885447 672.961914
v 25.820757 1.489471 670.738464
v -25.768936 0.746759 671.318237
v -25.314358 -28.183502 669.390015
v 26.728981 -26.863909 667.377075
v 1.135909 -29.310513 672.612366
v 2.344073 -60.317112 665.830200
v 28.497972 59.320648 660.802734
v -28.728188 57.012489 658.488831
v -26.596506 -57.402794 661.719727
v -0.569039 95.215195 649.860474
v 27.983532 -54.658108 657.366638
v -30.554491 -84.345314 645.920166
v 2.966980 -92.844170 651.506226
v 33.429798 84.419006 642.154785
v 23.279648 24.446405 645.421509
v -23.554691 0.648029 647.062927
v 22.366840 1.406257 647.650757
v 21.513231 -21.640152 645.546265
v -22.780745 -22.944448 645.962280
v 29.863398 -78.774925 639.080872
v -30.658688 83.224976 640.286987
v 23.585772 45.867157 638.760925
v -23.797831 23.329456 644.343323
v -0.026154 23.010342 640.912231
v -0.291331 0.955043 643.752930
v -0.543747 -20.976580 641.528198
v 21.889193 -42.073662 637.213013
v -22.981850 -44.532345 639.334839
v 0.233178 42.508057 634.134460
v -23.626728 44.378838 636.820374
v -0.276503 -41.351158 634.727722
v 4.004627 120.418015 619.325439
v 22.915144 62.602123 626.056641
v -23.462835 60.685051 623.436035
v -0.166650 57.833138 622.482910
v 22.870972 -59.038105 623.266052
v 0.243348 -57.298008 622.293701
v -22.741787 -62.373844 626.618347
v 2.951832 -119.698578 624.354736
v -32.313080 -102.491615 616.801758
v 36.763264 95.849289 605.793335
v -29.191298 100.934952 612.875610
v 30.029928 -97.830574 611.355347
v 22.291063 68.092926 605.821228
v -1.184268 61.593067 602.574341
v -26.068640 69.562653 598.675964
v 23.792551 -66.408241 598.772766
v 1.237578 -61.538380 602.261719
v -22.252623 -69.836578 603.642944
v -1.724466 19.652754 573.622803
v 0.210447 -12.444580 573.914368
v 21.143793 22.401644 572.470093
v -27.385334 23.037592 563.156860
v 24.020231 -13.322349 565.059814
v -23.806221 -14.377986 565.867249
v 24.368488 27.785513 550.297363
v 24.699495 -3.620750 546.362183
v 9.296860 18.754602 536.722412
v -18.550764 14.113333 538.411377
v 4.950298 -6.486527 539.115173
v -15.776914 -10.747471 543.262329
v 3.311271 -26.141478 529.233521
v -18.158005 -36.380074 535.734985
v 14.616897 11.856886 473.454742
v -3.085333 9.581372 473.867188
v -22.224052 11.565417 473.296143
v 20.256493 -10.751560 477.245789
v 0.423438 -11.361379 473.693207
v -18.335140 -17.312059 473.978210
v -26.224619 -109.956924 580.212524
v 1.111952 -123.626450 591.439270
v 2.602978 -42.793312 582.451721
v 26.192266 -108.061874 575.463135
v 2.169856 -155.567795 582.910156
v 29.108969 -57.070217 560.620728
v 25.997299 -143.995499 567.212280
v -27.390331 -145.933243 571.174561
v -24.271635 -58.894474 568.996338
v 2.096654 -185.234634 562.664185
v 28.133785 -171.032043 550.574890
v -27.879963 -174.023132 553.491028
v 22.749493 -111.380402 548.445801
v 0.472522 -110.842072 546.761230
v -21.740723 -110.376709 550.915894
v 0.460999 -134.769180 546.480042
v 21.515385 -135.513535 545.819458
v -22.018274 -135.802628 547.859253
v 24.942234 -27.919624 533.590088
v 0.516425 -89.678772 533.931335
v -22.542109 -80.456497 537.496216
v 21.843544 -153.651260 535.208923
v 0.179711 -153.186905 535.260742
v -22.390505 -154.087708 536.141113
v -27.844719 -190.054062 526.844116
v 2.014857 -203.989120 531.312744
v 22.254013 -84.701019 535.291626
v 28.528982 -186.827713 525.679199
v 22.202120 -164.228531 518.805298
v 0.383745 -163.734650 518.697144
v -22.939306 -164.895935 519.079346
v 23.422726 -33.262463 512.587830
v 2.940504 -36.635048 509.170197
v -17.520046 -59.211155 512.341553
v 23.197674 -52.796661 513.253174
v 22.351864 -77.715324 511.882690
v 0.711212 -78.382164 509.900513
v 0.291705 -165.205582 500.572845
v -21.243118 -76.455399 487.552643
v 22.183744 -166.334793 500.141693
v -21.945641 -167.431702 499.964935
v 28.015656 -189.756989 497.581146
v -27.395884 -192.987747 497.625458
v 2.084858 -207.311157 495.717804
v 20.636520 -26.419020 489.448303
v 1.153424 -31.855543 489.839508
v -20.890741 -39.670444 485.289764
v 0.879901 -81.097145 490.607635
v 0.278168 -159.096954 483.799835
v -21.831972 -160.986450 483.139709
v 24.256409 -47.801041 479.798889
v 21.426628 -160.130417 483.215607
v 22.357992 -73.686035 483.165649
v -0.405230 -91.099312 475.029297
v 21.838266 -146.864517 470.850891
v -21.920807 -147.586624 470.189789
v 0.225712 -146.621368 470.821899
v 27.295591 -180.628860 471.093903
v -26.366518 -182.914001 470.582611
v 1.728506 -196.124863 463.304657
v 23.593441 -161.359131 452.845398
v -24.606541 -162.862305 451.709961
v 1.195357 -174.015869 439.147186
v 6.417616 120.602165 588.623962
v 25.661457 81.916649 556.821533
v -2.765844 50.057552 583.370361
v 9.617126 158.037567 578.392395
v -26.740234 152.181717 573.119873
v -24.450695 113.829849 584.266724
v -23.546715 70.554451 558.079590
v 29.630119 134.138794 553.083679
v 23.682407 51.772011 581.429199
v -18.633163 129.335205 551.307617
v -27.364944 188.659195 544.548218
v 13.712228 192.168411 550.618347
v 25.487499 165.929703 535.604736
v 10.899461 131.294174 543.168884
v -2.857860 127.738838 544.707275
v 8.568261 97.399231 534.076294
v -7.146058 94.041534 535.258606
v -19.464993 161.148605 532.887329
v 9.732907 154.422470 529.835266
v -3.986572 154.861649 529.643799
v 13.645812 37.210247 529.748291
v -18.060715 34.134838 529.573730
v 19.510487 204.650116 504.905640
v -20.136604 202.891495 500.204956
v 22.271841 173.711304 507.426514
v -20.633787 171.387054 502.056061
v 7.930359 162.940231 506.884186
v -6.580638 162.234436 506.037445
v -23.749977 54.590275 513.005615
v 14.669208 38.011200 507.356293
v -12.593644 32.477028 509.766663
v 5.281198 155.483261 483.379608
v 3.957918 84.634697 504.097748
v -18.366087 77.525368 498.434113
v 24.038618 66.902573 499.984985
v 13.156387 27.766417 484.606445
v -6.543773 27.423662 488.385986
v 19.996904 161.997360 478.151337
v -10.165732 152.955200 480.802490
v 23.134924 44.408279 468.495758
v -23.165405 34.423203 486.196747
v -23.643644 159.044815 468.992950
v -14.911737 130.007935 465.664490
v 2.425796 134.371658 467.946808
v 1.246192 94.994942 479.067993
v -18.662359 90.605141 476.568665
v 28.745581 181.743607 459.164093
v -11.038192 183.645493 451.006165
v -22.663271 -105.234787 458.431946
v 22.697857 -109.532310 458.560364
v 0.345619 -109.351563 464.002045
v 21.722929 -129.809753 462.819244
v 0.479273 -129.346130 463.619202
v -21.013866 -129.765656 461.968994
v 22.854929 -84.539146 459.234192
v -20.643171 -69.491928 462.007538
v 16.708229 -115.624977 434.686707
v -17.661259 -113.884766 434.597412
v 7.282190 -58.556881 450.737549
v 21.137508 -139.196655 441.279510
v -21.597336 -139.238174 440.257904
v 0.763888 -77.530922 427.728394
v 17.920031 -86.870888 423.496063
v -18.173080 -83.236656 422.878815
v 0.340623 -147.573593 426.246796
v -0.834174 -52.801174 413.249146
v -19.087788 -62.065575 402.186401
v 20.881178 -62.530998 402.842163
v -1.317484 -100.465065 401.625336
v -2.187788 -27.575947 396.689606
v 0.958331 111.105560 467.603363
v -19.430395 108.610451 464.133209
v -23.221972 49.802738 467.996796
v 17.877340 132.688446 459.903503
v -0.009206 43.705463 455.491058
v 26.475019 14.895616 455.429413
v -21.263037 -22.248741 452.071686
v 23.739836 68.691277 450.264709
v -26.997513 71.716019 452.139709
v -26.978813 13.918428 451.336914
v 32.195969 -16.193958 457.964142
v 15.627310 105.220314 458.819550
v -1.954769 62.838337 445.074097
v 1.567348 16.853731 440.430206
v 5.447601 -23.860569 441.845642
v -20.513300 89.403831 440.288849
v 20.002172 86.599167 438.621460
v -1.262471 76.176392 433.488800
v 26.494274 126.724075 433.499603
v -20.409113 67.272202 410.227112
v 16.106861 63.041962 418.420715
v -3.235512 58.456161 416.794556
v -2.398039 137.963364 420.950745
v -25.890148 123.329529 435.740295
v -6.585882 32.371231 400.725006
v 19.562248 82.285591 408.104370
v 12.378434 34.698540 402.645813
v -20.795851 88.866035 399.001404
v 18.254444 46.094414 391.613800
v 13.077920 5.406615 389.056793
v -5.220144 3.427478 387.175323
v 4.439775 92.849205 395.650269
v 12.322576 54.137592 378.082489
v 18.979069 -141.552582 -71.579117
v 23.233879 -54.575325 295.575623
v 17.789923 -86.484528 -74.244392
v -17.464987 -89.624290 -42.144600
v 19.237495 -145.008011 -23.937632
v -20.748344 -58.507820 -39.137341
v 19.129656 -87.117836 -38.148800
v -18.596306 -141.418747 -0.057467
v 15.732752 -142.353378 6.083564
v -19.984777 -91.161362 3.516634
v 20.303423 -88.892624 9.017032
v -3.855881 -143.757660 8.162713
v -2.796545 -92.673683 12.343234
v 15.690613 83.649208 471.960052
v 0.783493 -123.764236 414.752655
v 50.351158 -31.591110 296.602142
v 58.760201 1.920425 296.190338
v 46.742046 35.803646 296.452240
v 16.370716 56.853413 295.440033
v -20.194698 57.068649 297.842621
v -17.428005 -166.658463 -71.712074
v -14.604411 -166.924622 -30.502047
v -46.393642 29.687469 307.124939
v -55.068306 -2.537569 306.545593
v 17.747370 -167.734482 -69.820961
v -19.690191 -141.960693 -26.477331
v 15.846452 -167.124496 -31.799788
v -0.181655 0.539989 -102.792351
v -8.861369 -47.091824 -100.043297
v -19.024942 -141.225662 -72.167648
v -19.827541 -90.170860 -73.026878
v -18.057650 -58.098595 -72.890846
v 20.484808 -44.375690 345.937622
v -9.623196 -51.238518 346.951630
v -36.076160 -33.123001 347.735413
# 419 positions

vt 0.838829 0.864441
vt 0.873111 0.878781
vt 0.858687 0.909165
vt 0.825380 0.902602
vt 0.276435 0.309960
vt 0.270332 0.310065
vt 0.263195 0.273806
vt 0.268151 0.274559
vt 0.091403 0.775376
vt 0.062176 0.778389
vt 0.062176 0.734918
vt 0.099435 0.758235
vt 0.095842 0.736592
vt 0.208802 0.962342
vt 0.242634 0.963740
vt 0.244782 0.990000
vt 0.201311 0.990000
vt 0.723297 0.246025
vt 0.733917 0.282060
vt 0.698672 0.287419
vt 0.691431 0.250007
vt 0.849932 0.949139
vt 0.816411 0.942796
vt 0.146100 0.927700
vt 0.103802 0.927700
vt 0.100669 0.893984
vt 0.146237 0.888547
vt 0.684593 0.211346
vt 0.716283 0.207238
vt 0.720577 0.434882
vt 0.675241 0.442154
vt 0.666849 0.414795
vt 0.716898 0.406770
vt 0.771961 0.710339
vt 0.772433 0.739522
vt 0.733294 0.740655
vt 0.729789 0.712556
vt 0.859911 0.773683
vt 0.809509 0.756927
vt 0.824147 0.734985
vt 0.865286 0.744975
vt 0.766897 0.649280
vt 0.725420 0.655986
vt 0.766256 0.617338
vt 0.725146 0.620299
vt 0.694334 0.507667
vt 0.725146 0.485634
vt 0.739559 0.533665
vt 0.842103 0.988020
vt 0.808478 0.982695
vt 0.688286 0.546791
vt 0.712135 0.576747
vt 0.089059 0.068227
vt 0.091208 0.100403
vt 0.051884 0.104144
vt 0.051096 0.068765
vt 0.012092 0.106727
vt 0.010000 0.072647
vt 0.659154 0.287626
vt 0.649299 0.251586
vt 0.733429 0.587202
vt 0.847746 0.833759
vt 0.793986 0.859052
vt 0.808989 0.823189
vt 0.783513 0.896385
vt 0.773660 0.935042
vt 0.642627 0.215932
vt 0.766052 0.972653
vt 0.091347 0.143352
vt 0.053422 0.146942
vt 0.014869 0.150141
vt 0.667280 0.320147
vt 0.619874 0.322872
vt 0.606714 0.287215
vt 0.601737 0.254438
vt 0.748228 0.849868
vt 0.758593 0.808388
vt 0.734558 0.888367
vt 0.593987 0.219405
vt 0.090435 0.192488
vt 0.054299 0.195613
vt 0.017544 0.198777
vt 0.727033 0.924917
vt 0.718597 0.961264
vt 0.675714 0.354448
vt 0.625989 0.363891
vt 0.145958 0.402504
vt 0.146237 0.444822
vt 0.124726 0.446089
vt 0.121595 0.398864
vt 0.553668 0.319212
vt 0.553393 0.289260
vt 0.545102 0.256442
vt 0.540550 0.222993
vt 0.090268 0.245970
vt 0.054845 0.249257
vt 0.099116 0.400388
vt 0.098600 0.442998
vt 0.757005 0.374202
vt 0.783893 0.377873
vt 0.782859 0.425863
vt 0.762162 0.434660
vt 0.673849 0.913582
vt 0.683176 0.879646
vt 0.667396 0.948844
vt 0.018973 0.251509
vt 0.756284 0.321855
vt 0.786937 0.318484
vt 0.810902 0.376627
vt 0.814809 0.323605
vt 0.500319 0.321997
vt 0.492787 0.291554
vt 0.687620 0.846136
vt 0.626531 0.867514
vt 0.635745 0.836798
vt 0.490000 0.260182
vt 0.621121 0.901275
vt 0.483850 0.227078
vt 0.613102 0.934910
vt 0.089496 0.302830
vt 0.055067 0.304854
vt 0.020275 0.307454
vt 0.575008 0.855517
vt 0.580245 0.823454
vt 0.758429 0.264991
vt 0.789333 0.267379
vt 0.442475 0.326636
vt 0.439658 0.295742
vt 0.433608 0.263840
vt 0.567102 0.887491
vt 0.429311 0.231278
vt 0.560422 0.920418
vt 0.088701 0.357652
vt 0.055009 0.360318
vt 0.021247 0.361943
vt 0.820670 0.266117
vt 0.524258 0.842772
vt 0.531832 0.811305
vt 0.760897 0.215214
vt 0.792533 0.214954
vt 0.517585 0.874549
vt 0.510369 0.906932
vt 0.824051 0.217100
vt 0.393038 0.331121
vt 0.387540 0.299395
vt 0.383108 0.267381
vt 0.377585 0.234497
vt 0.088275 0.409538
vt 0.054685 0.411670
vt 0.021363 0.413662
vt 0.348458 0.334149
vt 0.343641 0.302434
vt 0.338261 0.270074
vt 0.763207 0.170081
vt 0.796126 0.171399
vt 0.828732 0.173125
vt 0.728796 0.214572
vt 0.731761 0.170430
vt 0.473642 0.862631
vt 0.481773 0.831707
vt 0.467666 0.894173
vt 0.333799 0.237881
vt 0.053615 0.457036
vt 0.020976 0.457399
vt 0.086337 0.453731
vt 0.763565 0.132714
vt 0.800838 0.133661
vt 0.838583 0.134335
vt 0.726313 0.133131
vt 0.311476 0.341751
vt 0.307123 0.304073
vt 0.436969 0.852555
vt 0.446083 0.816281
vt 0.297378 0.271850
vt 0.429970 0.888781
vt 0.296016 0.235505
vt 0.052484 0.494905
vt 0.014492 0.494999
vt 0.089597 0.491475
vt 0.129873 0.533879
vt 0.125652 0.536402
vt 0.088994 0.529100
vt 0.092005 0.513949
vt 0.801237 0.109190
vt 0.801207 0.098952
vt 0.838062 0.097861
vt 0.841914 0.115269
vt 0.762555 0.114950
vt 0.764036 0.098803
vt 0.724004 0.112560
vt 0.727700 0.096561
vt 0.294009 0.347708
vt 0.276683 0.347317
vt 0.420134 0.847548
vt 0.405156 0.844012
vt 0.411599 0.809954
vt 0.427081 0.810652
vt 0.411006 0.885803
vt 0.395746 0.878781
vt 0.052548 0.512663
vt 0.051399 0.529117
vt 0.016183 0.527878
vt 0.012611 0.513278
vt 0.763395 0.069899
vt 0.798821 0.072419
vt 0.835700 0.067887
vt 0.246786 0.351359
vt 0.244428 0.314042
vt 0.727131 0.068150
vt 0.384725 0.802844
vt 0.379210 0.838348
vt 0.233378 0.275506
vt 0.118882 0.562342
vt 0.084079 0.556367
vt 0.047657 0.557438
vt 0.010575 0.551493
vt 0.369877 0.871821
vt 0.762892 0.056402
vt 0.762575 0.042760
vt 0.796016 0.044125
vt 0.797287 0.055952
vt 0.829805 0.041809
vt 0.832634 0.053962
vt 0.728796 0.054049
vt 0.729640 0.040417
vt 0.231943 0.354757
vt 0.218888 0.356705
vt 0.212370 0.317528
vt 0.226810 0.315845
vt 0.366087 0.835346
vt 0.357095 0.833524
vt 0.356266 0.805380
vt 0.370051 0.803781
vt 0.354205 0.866834
vt 0.344827 0.863593
vt 0.217200 0.277892
vt 0.340081 0.899964
vt 0.328805 0.890775
vt 0.116444 0.576332
vt 0.114188 0.586982
vt 0.081467 0.584985
vt 0.081715 0.574724
vt 0.050672 0.583989
vt 0.044210 0.571475
vt 0.186219 0.362990
vt 0.184979 0.321962
vt 0.759869 0.010000
vt 0.790459 0.023656
vt 0.725112 0.015988
vt 0.338726 0.834354
vt 0.332817 0.813174
vt 0.103443 0.618423
vt 0.079329 0.610719
vt 0.326432 0.855111
vt 0.301757 0.885861
vt 0.055251 0.610290
vt 0.378241 0.752499
vt 0.351546 0.773209
vt 0.338858 0.737877
vt 0.370035 0.724823
vt 0.296245 0.573116
vt 0.289239 0.545063
vt 0.320208 0.545376
vt 0.323731 0.580475
vt 0.313249 0.841575
vt 0.365788 0.944103
vt 0.365783 0.964208
vt 0.328468 0.962854
vt 0.324805 0.934861
vt 0.365378 0.990000
vt 0.401643 0.958635
vt 0.406061 0.981374
vt 0.326505 0.988558
vt 0.183084 0.561946
vt 0.171162 0.519167
vt 0.199719 0.517177
vt 0.208033 0.564486
vt 0.431172 0.701329
vt 0.388390 0.689005
vt 0.386282 0.662842
vt 0.424748 0.675027
vt 0.291733 0.988872
vt 0.293556 0.963164
vt 0.302589 0.823874
vt 0.291682 0.869709
vt 0.281985 0.853243
vt 0.286840 0.512001
vt 0.322310 0.512465
vt 0.359715 0.693727
vt 0.325638 0.704584
vt 0.674016 0.696252
vt 0.674423 0.662842
vt 0.704809 0.663966
vt 0.703317 0.696859
vt 0.645260 0.696582
vt 0.644404 0.663865
vt 0.673407 0.730314
vt 0.644338 0.728545
vt 0.703031 0.729380
vt 0.674523 0.627374
vt 0.641393 0.630402
vt 0.706954 0.631699
vt 0.674411 0.588140
vt 0.711475 0.596109
vt 0.634159 0.595653
vt 0.607352 0.434105
vt 0.622535 0.462265
vt 0.596738 0.471894
vt 0.584993 0.449537
vt 0.631466 0.492355
vt 0.603264 0.495709
vt 0.013945 0.732059
vt 0.024759 0.701506
vt 0.048802 0.711305
vt 0.041133 0.735666
vt 0.010000 0.765059
vt 0.038910 0.760184
vt 0.040574 0.674079
vt 0.061167 0.689061
vt 0.587550 0.409186
vt 0.569104 0.428781
vt 0.704809 0.763206
vt 0.672301 0.765191
vt 0.562288 0.387422
vt 0.549636 0.413480
vt 0.063002 0.650095
vt 0.078658 0.672196
vt 0.641927 0.761575
vt 0.671373 0.804486
vt 0.635901 0.794965
vt 0.710058 0.798048
vt 0.045191 0.782288
vt 0.017738 0.799401
vt 0.633211 0.527285
vt 0.601879 0.518987
vt 0.530884 0.372309
vt 0.526978 0.405807
vt 0.822862 0.698229
vt 0.780436 0.688940
vt 0.780240 0.643318
vt 0.824422 0.655971
vt 0.860603 0.700134
vt 0.865104 0.663884
vt 0.092141 0.633116
vt 0.100282 0.661126
vt 0.393590 0.791449
vt 0.389319 0.753522
vt 0.433207 0.746848
vt 0.432445 0.789266
vt 0.492703 0.373992
vt 0.501616 0.414132
vt 0.468818 0.791449
vt 0.473785 0.754405
vt 0.049273 0.827980
vt 0.063484 0.796083
vt 0.281829 0.166782
vt 0.306297 0.167252
vt 0.306965 0.193618
vt 0.283615 0.193566
vt 0.331510 0.168307
vt 0.332116 0.193799
vt 0.332592 0.219833
vt 0.307782 0.220255
vt 0.358271 0.219291
vt 0.357060 0.194062
vt 0.356674 0.169164
vt 0.380574 0.168836
vt 0.381366 0.193704
vt 0.382881 0.219776
vt 0.128942 0.625741
vt 0.128906 0.664138
vt 0.621131 0.561170
vt 0.586333 0.544043
vt 0.258631 0.168556
vt 0.261957 0.194716
vt 0.283574 0.220429
vt 0.404831 0.167252
vt 0.404119 0.192429
vt 0.407116 0.218731
vt 0.260265 0.220724
vt 0.825324 0.623067
vt 0.862876 0.626157
vt 0.094894 0.837924
vt 0.087322 0.895813
vt 0.046382 0.913622
vt 0.044824 0.870352
vt 0.912327 0.665280
vt 0.935558 0.665280
vt 0.931431 0.691435
vt 0.908481 0.692921
vt 0.933924 0.716510
vt 0.906409 0.722893
vt 0.818725 0.441759
vt 0.845038 0.435854
vt 0.846474 0.462571
vt 0.823225 0.465371
vt 0.819090 0.491647
vt 0.845815 0.491151
vt 0.129985 0.584502
vt 0.165616 0.594239
vt 0.170257 0.631437
vt 0.801787 0.588226
vt 0.801350 0.546966
vt 0.837185 0.542425
vt 0.836581 0.578134
vt 0.477337 0.446658
vt 0.435026 0.447151
vt 0.427737 0.411117
vt 0.455004 0.392676
vt 0.095629 0.789864
vt 0.107121 0.831743
vt 0.604791 0.592310
vt 0.552023 0.573116
vt 0.166281 0.689603
vt 0.880848 0.665728
vt 0.883022 0.694276
vt 0.187443 0.271630
vt 0.187464 0.218476
vt 0.218030 0.211907
vt 0.222716 0.247557
vt 0.877207 0.456777
vt 0.884547 0.492327
vt 0.216409 0.175527
vt 0.188020 0.177644
vt 0.243707 0.211417
vt 0.244670 0.171872
vt 0.214339 0.139865
vt 0.251922 0.123302
vt 0.118066 0.763549
vt 0.143022 0.731571
vt 0.157433 0.749656
vt 0.137905 0.779029
vt 0.251922 0.244551
vt 0.526979 0.525133
vt 0.502469 0.557651
vt 0.497438 0.533681
vt 0.503579 0.489569
vt 0.484466 0.508491
vt 0.182253 0.730752
vt 0.461593 0.488963
vt 0.425692 0.482927
vt 0.923077 0.788899
vt 0.920993 0.824052
vt 0.897431 0.828710
vt 0.900978 0.799804
vt 0.920108 0.853669
vt 0.896205 0.853582
vt 0.873426 0.832854
vt 0.870603 0.805593
vt 0.870288 0.781312
vt 0.905533 0.777745
vt 0.870288 0.862459
vt 0.353738 0.460347
vt 0.359920 0.434783
vt 0.385628 0.437940
vt 0.386178 0.472978
vt 0.356991 0.410269
vt 0.380920 0.414285
vt 0.534432 0.799815
vt 0.535538 0.779898
vt 0.559039 0.782575
vt 0.560212 0.804917
vt 0.512952 0.799221
vt 0.509718 0.777353
vt 0.203424 0.809984
vt 0.220461 0.798292
vt 0.240097 0.811504
vt 0.213208 0.836098
vt 0.229725 0.774078
vt 0.254461 0.779128
vt 0.532844 0.758581
vt 0.503673 0.758107
vt 0.564870 0.761629
vt 0.436848 0.578340
vt 0.463322 0.589497
vt 0.458305 0.615781
vt 0.418722 0.595668
vt 0.587978 0.784184
vt 0.582294 0.805990
vt 0.247342 0.735192
vt 0.226811 0.751968
vt 0.592630 0.758107
vt 0.372230 0.513796
vt 0.412979 0.524244
vt 0.418474 0.551702
vt 0.395566 0.562145
vt 0.408971 0.389229
vt 0.424767 0.364996
vt 0.870302 0.547354
vt 0.872572 0.588226
vt 0.178122 0.129245
vt 0.199214 0.638834
vt 0.204464 0.671972
vt 0.837883 0.503026
vt 0.873800 0.511037
vt 0.800095 0.508883
vt 0.189750 0.597005
vt 0.209538 0.614195
vt 0.391426 0.349397
vt 0.386948 0.379091
vt 0.418867 0.178989
vt 0.457509 0.177463
vt 0.459575 0.212318
vt 0.426394 0.214520
vt 0.422936 0.141500
vt 0.458017 0.141328
vt 0.215257 0.573565
vt 0.226434 0.598327
vt 0.124718 0.080192
vt 0.125045 0.104451
vt 0.103163 0.104786
vt 0.103145 0.080789
vt 0.356902 0.350043
vt 0.364440 0.378862
vt 0.344057 0.118725
vt 0.368950 0.120196
vt 0.367791 0.147958
vt 0.343345 0.151638
vt 0.345824 0.092163
vt 0.369211 0.093323
vt 0.394179 0.120302
vt 0.394179 0.156614
vt 0.394242 0.092251
vt 0.345171 0.068925
vt 0.369138 0.069260
vt 0.394125 0.068227
vt 0.629507 0.174464
vt 0.634169 0.200031
vt 0.600743 0.207763
vt 0.599063 0.177560
vt 0.628374 0.149909
vt 0.601706 0.152818
vt 0.125089 0.130452
vt 0.102757 0.129816
vt 0.493251 0.140694
vt 0.494967 0.177585
vt 0.327544 0.364314
vt 0.344887 0.387774
vt 0.493479 0.212135
vt 0.246459 0.592517
vt 0.246142 0.565190
vt 0.276245 0.571640
vt 0.265829 0.596749
vt 0.145403 0.079822
vt 0.145447 0.104247
vt 0.146365 0.129145
vt 0.406652 0.413077
vt 0.407939 0.434783
vt 0.206820 0.734327
vt 0.214655 0.714318
vt 0.418711 0.458171
vt 0.389999 0.490313
vt 0.423783 0.488549
vt 0.226563 0.689308
vt 0.254877 0.706431
vt 0.576129 0.173761
vt 0.572231 0.146747
vt 0.571254 0.198773
vt 0.165364 0.103832
vt 0.166233 0.128343
vt 0.165275 0.080352
vt 0.543353 0.207591
vt 0.554598 0.173460
vt 0.280801 0.609378
vt 0.300900 0.589922
vt 0.332538 0.403549
vt 0.307672 0.389528
vt 0.525061 0.213264
vt 0.531758 0.178989
vt 0.527470 0.141336
vt 0.543353 0.143592
vt 0.669543 0.097214
vt 0.670363 0.117285
vt 0.645718 0.118103
vt 0.644806 0.097390
vt 0.185408 0.104056
vt 0.185408 0.080010
vt 0.327730 0.423699
vt 0.301230 0.419529
vt 0.289117 0.627819
vt 0.313079 0.616503
vt 0.285396 0.699686
vt 0.287222 0.734265
vt 0.705799 0.183261
vt 0.674800 0.185579
vt 0.674250 0.161294
vt 0.699730 0.157139
vt 0.292390 0.672487
vt 0.320696 0.670860
vt 0.644806 0.205670
vt 0.647319 0.165903
vt 0.341304 0.470170
vt 0.366936 0.500944
vt 0.313095 0.476828
vt 0.694214 0.114636
vt 0.695632 0.135567
vt 0.672346 0.138538
vt 0.292772 0.649085
vt 0.318258 0.643323
vt 0.329935 0.445427
vt 0.304006 0.448810
vt 0.648575 0.139723
vt 0.264479 0.126824
vt 0.260430 0.096171
vt 0.295369 0.088518
vt 0.296006 0.124400
vt 0.331751 0.094763
vt 0.329325 0.126545
vt 0.266133 0.154822
vt 0.296360 0.155968
vt 0.326955 0.155968
vt 0.897861 0.201800
vt 0.862650 0.197763
vt 0.856776 0.154903
vt 0.898032 0.157357
vt 0.479582 0.990000
vt 0.497818 0.959310
vt 0.537001 0.965577
vt 0.537709 0.990000
vt 0.853593 0.105910
vt 0.899887 0.105910
vt 0.092737 0.936052
vt 0.064988 0.959103
vt 0.624675 0.630337
vt 0.587944 0.630434
vt 0.631500 0.681383
vt 0.600345 0.669328
vt 0.577294 0.982859
vt 0.566867 0.963009
vt 0.582678 0.671640
vt 0.571637 0.640498
vt 0.547440 0.612430
vt 0.917279 0.959776
vt 0.888314 0.951551
vt 0.887741 0.914997
vt 0.917279 0.894443
vt 0.500503 0.587813
vt 0.481828 0.567367
vt 0.833316 0.291424
vt 0.879597 0.292564
vt 0.878457 0.345588
vt 0.834097 0.343776
vt 0.604878 0.726575
vt 0.582173 0.699978
vt 0.503527 0.618806
vt 0.108152 0.990000
vt 0.118025 0.956785
vt 0.898376 0.247187
vt 0.899887 0.279829
vt 0.877950 0.275232
vt 0.877671 0.247410
vt 0.533926 0.949823
vt 0.567278 0.948327
vt 0.495551 0.941777
vt 0.870090 0.917970
vt 0.864710 0.964195
vt 0.846353 0.277522
vt 0.840775 0.243290
vt 0.860384 0.246476
vt 0.863826 0.273819
vt 0.124160 0.694337
vt 0.125946 0.729682
vt 0.103516 0.725062
vt 0.099240 0.694337
vt 0.879492 0.403330
vt 0.834326 0.403330
vt 0.153109 0.954640
vt 0.165647 0.984053
vt 0.548188 0.747703
vt 0.542704 0.711063
vt 0.890502 0.214265
vt 0.873694 0.220386
vt 0.840775 0.203826
vt 0.857971 0.215723
vt 0.170914 0.844722
vt 0.176884 0.810661
vt 0.456725 0.570310
vt 0.078534 0.720966
vt 0.071987 0.699661
vt 0.546582 0.110437
vt 0.553529 0.094983
vt 0.583233 0.095464
vt 0.575891 0.113793
vt 0.576299 0.133045
vt 0.539388 0.127248
vt 0.897092 0.980494
vt 0.876348 0.990000
vt 0.191968 0.875546
vt 0.176072 0.890678
vt 0.154299 0.869647
vt 0.495531 0.645485
vt 0.460150 0.646761
vt 0.183543 0.931140
vt 0.214533 0.937354
vt 0.519551 0.685703
vt 0.550100 0.691485
vt 0.488122 0.703690
vt 0.164278 0.198605
vt 0.164278 0.231577
vt 0.133983 0.230906
vt 0.133876 0.196455
vt 0.132291 0.170225
vt 0.161983 0.168239
vt 0.486627 0.738601
vt 0.605608 0.091417
vt 0.602837 0.115122
vt 0.465882 0.671638
vt 0.500166 0.669797
vt 0.605210 0.135657
vt 0.625738 0.115188
vt 0.629730 0.092801
vt 0.633211 0.135657
vt 0.183084 0.398883
vt 0.228144 0.395775
vt 0.229340 0.463258
vt 0.192357 0.459684
vt 0.196042 0.903211
vt 0.225195 0.892965
vt 0.287816 0.772739
vt 0.320197 0.725754
vt 0.261471 0.963320
vt 0.259070 0.985741
vt 0.350838 0.666202
vt 0.281397 0.483122
vt 0.274242 0.454661
vt 0.288086 0.934861
vt 0.101834 0.232616
vt 0.102854 0.192087
vt 0.172325 0.266145
vt 0.137545 0.276303
vt 0.105169 0.274184
vt 0.133988 0.149627
vt 0.160619 0.144232
vt 0.101686 0.163179
vt 0.108813 0.139512
vt 0.256185 0.876349
vt 0.258560 0.900353
vt 0.466160 0.911738
vt 0.460118 0.937874
vt 0.434364 0.947229
vt 0.434019 0.924941
vt 0.224233 0.520411
vt 0.443502 0.968118
vt 0.400543 0.937422
vt 0.157831 0.464522
vt 0.269817 0.922175
vt 0.756408 0.581558
vt 0.783936 0.562311
vt 0.789155 0.521839
vt 0.801339 0.442154
vt 0.765874 0.489963
vt 0.637694 0.418572
vt 0.127200 0.503026
vt 0.105315 0.502208
vt 0.145958 0.500736
vt 0.221894 0.868959
vt 0.347317 0.637012
vt 0.816141 0.012266
vt 0.205208 0.281302
vt 0.169426 0.282060
vt 0.350826 0.910866
vt 0.380037 0.929053
vt 0.780240 0.585051
vt 0.420998 0.712043
vt 0.384826 0.711729
vt 0.884547 0.416066
vt 0.862205 0.732020
vt 0.162438 0.776955
vt 0.156622 0.798720
vt 0.135364 0.316234
vt 0.101543 0.328084
vt 0.253487 0.942644
vt 0.127262 0.366789
vt 0.142272 0.349661
vt 0.482181 0.953443
vt 0.776248 0.751295
vt 0.736605 0.305245
vt 0.704548 0.315309
vt 0.709896 0.350526
vt 0.274605 0.232694
vt 0.010000 0.566066
# 781 texture coordinates

vn 0.238348 -0.534181 -0.811074
vn -0.533499 -0.430690 -0.727931
vn 0.687390 -0.334289 -0.644783
vn -0.787160 -0.137239 -0.601286
vn 0.785638 -0.492096 0.374987
vn 0.920501 0.051569 0.387321
vn 0.793725 0.516478 0.321327
vn 0.367245 0.906729 0.207300
vn -0.325639 0.928467 0.178629
vn -0.778305 0.594458 0.202139
vn 0.769448 0.137281 -0.623782
vn -0.970336 -0.025524 0.240410
vn -0.786996 -0.604383 0.123934
vn -0.217401 -0.946007 0.240431
vn -0.656036 0.440161 -0.613086
vn 0.451598 0.637940 -0.623772
vn -0.153011 0.732634 -0.663201
vn -0.845693 -0.525680 -0.091997
vn 0.714617 -0.545370 -0.438059
vn 0.906344 -0.419670 -0.049181
vn -0.989368 -0.144854 -0.012999
vn 0.981318 0.191703 -0.016251
vn -0.810439 0.585574 -0.017094
vn 0.557195 0.829978 -0.025902
vn -0.171953 0.984706 -0.028040
vn -0.892323 -0.451101 -0.016323
vn 0.949957 -0.311651 0.021323
vn -0.999487 -0.031955 -0.001973
vn -0.784546 0.620017 0.008169
vn -0.142635 0.989760 0.005504
vn 0.918707 -0.394298 0.022494
vn 0.976669 0.214745 0.001763
vn 0.565164 0.824963 0.004999
vn -0.826037 -0.484399 0.288133
vn -0.902771 -0.429923 0.013078
vn -0.997955 0.063020 -0.010721
vn -0.732616 0.680606 -0.007033
vn 0.772921 -0.552274 0.312389
vn 0.915946 -0.401301 0.000548
vn 0.974284 0.225094 -0.010126
vn 0.575494 0.817792 -0.004787
vn -0.095820 0.995391 -0.003973
vn -0.069594 -0.807377 0.585917
vn -0.033190 -0.996405 0.077940
vn -0.524220 -0.849545 0.058880
vn 0.481355 -0.876046 0.028988
vn -0.912281 -0.409491 0.007756
vn 0.918245 -0.395882 -0.010124
vn -0.984846 0.172912 -0.013395
vn 0.971985 0.234663 -0.013344
vn -0.669485 0.742775 -0.008713
vn -0.042236 0.999081 -0.007300
vn 0.600620 0.799483 -0.009043
vn 0.479378 -0.877569 0.008332
vn -0.939023 -0.343853 0.000412
vn 0.914077 -0.405536 0.001749
vn -0.962765 0.270335 0.001349
vn 0.974141 0.225940 -0.000107
vn -0.602858 0.797846 0.001908
vn 0.019717 0.999805 -0.001400
vn -0.092854 -0.995629 0.010052
vn -0.578286 -0.815740 0.012380
vn 0.635814 0.771843 -0.000052
vn 0.455740 -0.890110 0.002552
vn 0.980908 0.194389 -0.005678
vn -0.121449 -0.992597 -0.000467
vn -0.636810 -0.770998 -0.005869
vn 0.903993 -0.427544 -0.001942
vn -0.964980 -0.262284 -0.004490
vn -0.934041 0.357143 -0.003919
vn -0.539730 0.841801 -0.007870
vn 0.675145 0.737664 -0.005640
vn 0.091344 0.995794 -0.007119
vn -0.983243 -0.182018 0.010133
vn -0.152517 -0.987990 0.024788
vn 0.421359 -0.906612 0.022611
vn -0.677321 -0.735466 0.018074
vn 0.885322 -0.464729 0.015213
vn 0.988542 0.150753 0.007631
vn -0.905495 0.424302 0.006841
vn 0.714797 0.699325 0.003286
vn -0.470564 0.882324 0.008551
vn 0.156623 0.987642 0.005778
vn -0.187782 -0.975589 -0.113860
vn 0.387469 -0.914386 -0.117331
vn -0.734218 -0.673234 -0.087634
vn 0.858130 -0.500292 -0.115413
vn -0.995283 -0.092322 -0.029811
vn 0.987248 0.100459 -0.123487
vn -0.881487 0.471838 -0.018683
vn 0.744244 0.656697 -0.121862
vn -0.434294 0.898127 -0.068960
vn 0.211168 0.970960 -0.112452
vn -0.866001 0.469233 -0.172810
vn -0.212926 -0.952386 -0.218228
vn 0.351682 -0.903940 -0.243334
vn -0.773753 -0.594965 -0.217537
vn 0.820870 -0.509544 -0.257950
vn -0.986932 0.020326 -0.159850
vn 0.966240 0.065779 -0.249104
vn 0.750658 0.611899 -0.249183
vn -0.427119 0.871080 -0.242464
vn 0.250281 0.931079 -0.265428
vn -0.238599 -0.921219 0.307288
vn -0.717920 -0.606605 0.341499
vn 0.818937 -0.542840 0.186188
vn -0.921844 -0.050948 0.384199
vn -0.741550 0.563819 0.363609
vn -0.295461 0.909142 0.293537
vn 0.306348 0.923579 0.230547
vn 0.346315 -0.905410 0.245558
vn 0.983666 0.053991 0.171716
vn 0.774039 0.603647 0.190983
vn -0.240034 -0.969737 0.044654
vn 0.357092 -0.926772 0.116528
vn -0.776160 -0.627024 0.066463
vn 0.820193 -0.554962 0.138926
vn 0.994687 0.058455 0.084738
vn -0.995972 -0.037989 0.081218
vn 0.815425 0.578044 -0.030762
vn -0.808181 0.584944 0.068438
vn -0.337854 0.941099 -0.013658
vn 0.302053 0.946997 -0.109361
vn -0.153847 -0.976491 0.150986
vn 0.530152 -0.822485 0.206051
vn -0.755428 -0.585117 0.294901
vn 0.829308 -0.457000 0.321557
vn -0.906851 -0.019432 0.421003
vn 0.929589 0.051185 0.365026
vn 0.785800 0.497075 0.368013
vn -0.800515 0.520140 0.297709
vn 0.393110 0.872308 0.290762
vn -0.344600 0.931893 0.113255
vn -0.051914 -0.914535 -0.401161
vn 0.780732 -0.262852 0.566891
vn 0.875580 0.159751 0.455893
vn 0.835951 0.429980 0.341033
vn 0.773012 -0.179311 0.608523
vn -0.682162 -0.038340 0.730196
vn -0.541280 0.676541 -0.499308
vn -0.824464 -0.241387 0.511852
vn 0.733942 0.096224 0.672361
vn -0.878765 0.106405 0.465242
vn -0.025245 -0.550154 -0.834682
vn 0.011682 -0.003590 0.999925
vn -0.047610 0.385061 0.921662
vn -0.798585 0.083120 0.596116
vn 0.780896 0.071716 0.620530
vn -0.021659 0.170425 0.985133
vn 0.794585 -0.015703 0.606950
vn -0.771824 -0.018114 0.635577
vn -0.764470 -0.097921 0.637179
vn 0.824873 -0.081582 0.559400
vn 0.050149 -0.171043 0.983987
vn 0.105521 -0.357456 0.927950
vn 0.799836 0.170196 0.575583
vn -0.838023 0.176145 0.516421
vn -0.779111 -0.171536 0.602961
vn -0.030604 0.689953 0.723207
vn 0.864295 -0.141596 0.482644
vn -0.827121 -0.300258 0.475097
vn 0.137716 -0.628090 0.765857
vn 0.869445 0.273541 0.411389
vn 0.747887 -0.165008 -0.642991
vn -0.742629 -0.037137 -0.668673
vn 0.731349 -0.014427 -0.681851
vn 0.711687 0.168578 -0.681970
vn -0.759469 0.124271 -0.638563
vn 0.910958 -0.220621 0.348542
vn -0.868381 0.313503 0.384226
vn 0.746581 -0.346605 -0.567875
vn -0.728981 -0.175561 -0.661638
vn 0.030901 -0.222674 -0.974403
vn 0.011886 -0.019403 -0.999741
vn -0.019278 0.204299 -0.978719
vn 0.686504 0.382931 -0.618123
vn -0.766746 0.318035 -0.557634
vn 0.052929 -0.470072 -0.881040
vn -0.715667 -0.354274 -0.601922
vn -0.062613 0.474074 -0.878256
vn 0.094535 0.950229 0.296863
vn 0.724027 -0.598366 -0.343136
vn -0.742222 -0.562988 -0.363526
vn 0.054711 -0.833384 -0.549979
vn 0.720640 0.587702 -0.367809
vn -0.095280 0.829157 -0.550837
vn -0.778874 0.522322 -0.347182
vn 0.117847 -0.906759 0.404846
vn -0.880465 -0.430759 0.198063
vn 0.949596 0.311940 0.030987
vn -0.871742 0.461882 0.163498
vn 0.915768 -0.363350 0.171308
vn 0.720673 -0.692644 0.029577
vn -0.108598 -0.991487 0.071829
vn -0.860601 -0.504369 -0.070553
vn 0.837638 0.542648 0.062419
vn -0.056871 0.992723 0.106146
vn -0.830372 0.557169 -0.006702
vn -0.181027 -0.101475 0.978229
vn -0.010378 0.041755 0.999074
vn 0.722473 -0.138887 0.677306
vn -0.933926 -0.039041 0.355327
vn 0.834573 0.046500 0.548931
vn -0.895378 0.029237 0.444346
vn 0.956238 -0.037637 -0.290159
vn 0.879742 0.137294 -0.455196
vn 0.355717 -0.176971 -0.917685
vn -0.641629 -0.187627 -0.743713
vn 0.075470 0.176330 -0.981434
vn -0.721255 0.050488 -0.690827
vn -0.203795 0.660535 -0.722607
vn -0.857953 0.297387 -0.418900
vn 0.554643 -0.127542 0.822255
vn -0.035664 -0.269339 0.962385
vn -0.757585 -0.227369 0.611856
vn 0.523515 0.324909 0.787633
vn -0.125751 0.290085 0.948703
vn -0.759197 0.163367 0.630025
vn -0.962427 -0.229002 0.145920
vn 0.111695 -0.740665 0.662525
vn 0.072741 0.533170 0.842875
vn 0.968630 -0.217316 0.120542
vn 0.095659 -0.404645 0.909457
vn 0.976073 0.137431 0.168509
vn 0.912934 -0.145310 0.381362
vn -0.873318 -0.182571 0.451645
vn -0.951110 0.249835 0.181581
vn 0.081338 -0.716013 0.693333
vn 0.915756 -0.271750 0.295875
vn -0.862212 -0.358697 0.357669
vn 0.741526 -0.147110 -0.654597
vn -0.062270 -0.213650 -0.974924
vn -0.779321 -0.095596 -0.619290
vn -0.042446 0.296757 -0.954009
vn 0.681031 0.235365 -0.693398
vn -0.717445 0.239435 -0.654174
vn 0.825938 0.401895 -0.395358
vn -0.141980 -0.673576 -0.725353
vn -0.867531 -0.271235 -0.416918
vn 0.665726 0.536827 -0.518291
vn -0.025666 0.699421 -0.714249
vn -0.699521 0.510557 -0.500002
vn -0.863197 -0.481548 0.151665
vn 0.069723 -0.947162 0.313086
vn 0.786641 -0.455532 -0.416757
vn 0.910673 -0.391867 0.130826
vn 0.669370 0.701976 -0.243256
vn -0.017980 0.944075 -0.329242
vn -0.710646 0.661588 -0.239338
vn 0.728485 0.676553 -0.107637
vn -0.412361 0.910886 -0.015655
vn -0.997486 -0.021255 -0.067607
vn 0.998480 -0.013840 -0.053340
vn 0.751163 -0.641532 -0.155537
vn -0.219054 -0.966407 -0.134435
vn -0.020403 0.992231 0.122722
vn -0.821203 -0.542820 0.175991
vn 0.682797 0.726732 0.075154
vn -0.714351 0.696452 0.068249
vn 0.907935 -0.414130 -0.064431
vn -0.863306 -0.498653 -0.077774
vn 0.064259 -0.990027 -0.125366
vn 0.597465 0.604072 0.527382
vn -0.320581 0.733720 0.599068
vn -0.875461 0.343386 0.340080
vn -0.097416 -0.967774 0.232213
vn -0.019838 0.840200 0.541914
vn -0.720180 0.595852 0.355389
vn 0.988081 -0.016220 -0.153075
vn 0.689711 0.630267 0.356458
vn 0.888282 -0.459238 0.007501
vn -0.066734 -0.682376 0.727949
vn 0.722627 0.431713 0.539847
vn -0.733181 0.424475 0.531287
vn -0.019021 0.562464 0.826603
vn 0.904422 -0.337695 -0.260735
vn -0.869043 -0.408232 -0.279483
vn 0.055151 -0.841751 -0.537042
vn 0.898621 -0.207251 -0.386688
vn -0.882444 -0.239471 -0.404904
vn 0.046248 -0.567333 -0.822189
vn 0.456492 0.710729 0.535238
vn 0.983826 0.099960 -0.148645
vn -0.349662 -0.593451 0.724950
vn 0.394815 0.398219 0.827975
vn -0.802232 0.270491 0.532220
vn -0.914061 0.355045 0.196049
vn -0.998100 -0.058988 -0.017830
vn 0.994839 -0.032791 -0.096025
vn 0.782501 -0.438079 0.442468
vn -0.856222 -0.130270 -0.499914
vn -0.770781 0.553076 0.316235
vn 0.459400 0.723745 0.514922
vn 0.990599 -0.107818 -0.084192
vn 0.330120 -0.200087 -0.922489
vn -0.348568 -0.128068 -0.928493
vn 0.383975 0.563765 -0.731254
vn -0.632375 0.507592 -0.585194
vn -0.834158 -0.421509 -0.355683
vn 0.338210 -0.690385 -0.639517
vn -0.218574 -0.754909 -0.618335
vn 0.765220 -0.516584 -0.384161
vn -0.771709 -0.496375 -0.397589
vn 0.589960 0.807367 0.010321
vn -0.625822 0.770605 -0.120477
vn 0.943702 -0.327237 0.048408
vn -0.929582 -0.366850 -0.036024
vn 0.351899 -0.935746 -0.023389
vn -0.267015 -0.963617 0.012049
vn -0.999123 -0.036713 0.020126
vn 0.693277 -0.701581 0.164776
vn -0.400649 -0.895769 0.192556
vn 0.283341 -0.786299 0.549047
vn 0.286637 0.957369 -0.035842
vn -0.830658 0.549074 0.092336
vn 0.982133 0.185203 0.033382
vn 0.643648 -0.565029 0.516197
vn -0.140557 -0.779919 0.609893
vn 0.836047 -0.411732 0.362633
vn -0.394210 -0.719261 0.572068
vn 0.965144 -0.076959 -0.250148
vn -0.906602 -0.304175 0.292490
vn -0.997128 -0.074082 0.015734
vn -0.602150 -0.245603 0.759668
vn 0.210604 -0.361695 0.908197
vn 0.228864 0.741584 0.630615
vn -0.778259 0.469748 0.416713
vn 0.797248 0.487010 -0.356674
vn -0.400349 0.663213 -0.632352
vn -0.882968 -0.046067 0.467168
vn 0.878634 -0.056589 0.474130
vn -0.005454 -0.077882 0.996948
vn 0.780201 0.206394 0.590498
vn -0.012204 0.245083 0.969425
vn -0.775700 0.198317 0.599132
vn 0.994899 -0.056145 0.083810
vn -0.987401 -0.028660 -0.155623
vn 0.908116 -0.119974 -0.401162
vn -0.920228 -0.112084 -0.374991
vn 0.442562 0.266256 -0.856298
vn 0.894456 -0.118253 -0.431236
vn -0.884942 -0.120018 -0.449969
vn 0.141292 0.970636 0.194687
vn 0.967920 0.098629 -0.231090
vn -0.963697 0.188207 -0.189383
vn 0.026871 -0.345301 -0.938107
vn -0.029348 0.554338 0.831774
vn -0.995782 0.042223 0.081452
vn 0.996632 0.066852 0.047502
vn -0.050816 -0.539625 -0.840370
vn -0.066272 0.305264 0.949959
vn 0.210016 0.236956 0.948549
vn -0.795404 0.207113 0.569594
vn -0.946556 -0.006284 -0.322479
vn 0.782074 -0.231261 0.578688
vn 0.016214 -0.014799 -0.999759
vn 0.920416 0.199365 -0.336285
vn -0.818225 -0.122250 -0.561750
vn 0.866251 -0.213898 -0.451506
vn -0.906785 -0.209716 -0.365733
vn -0.843975 0.080315 -0.530335
vn 0.964252 -0.002409 -0.264977
vn 0.849906 0.104527 0.516463
vn -0.075011 -0.556416 -0.827511
vn 0.064738 0.225767 -0.972028
vn 0.179225 -0.188693 -0.965543
vn -0.975927 -0.214599 -0.038912
vn 0.961094 -0.274893 0.027052
vn -0.167750 -0.985508 0.025188
vn 0.934559 0.175861 -0.309309
vn -0.917512 -0.312437 0.246080
vn 0.681686 -0.477225 0.554581
vn -0.237870 -0.591937 0.770084
vn -0.112222 0.521377 -0.845915
vn -0.957998 0.180017 -0.223237
vn -0.279426 -0.403535 0.871252
vn 0.947743 0.106493 -0.300735
vn 0.496910 -0.371971 0.784039
vn -0.768725 0.282779 -0.573671
vn 0.979784 0.093086 0.177081
vn 0.362311 -0.101711 0.926491
vn -0.159724 -0.110011 0.981013
vn 0.238046 0.488001 -0.839755
vn 0.589488 0.721070 -0.364090
vn 0.714720 -0.054611 -0.697276
vn 0.371300 -0.919577 0.128507
vn 0.679588 -0.004264 -0.733582
vn -0.999981 -0.006067 0.000989
vn 0.852456 -0.419700 0.311722
vn -0.962333 -0.271226 -0.018736
vn 0.999992 0.003634 -0.001864
vn -0.712453 -0.587592 0.383597
vn 0.602768 -0.569357 0.559020
vn -0.870225 -0.031383 0.491655
vn 0.780307 -0.034215 0.624461
vn -0.152206 -0.684377 0.713065
vn -0.173779 -0.058151 0.983066
vn 0.885064 0.399904 0.238198
vn 0.035625 -0.347356 -0.937056
vn 0.841633 -0.528109 0.112939
vn 0.991993 0.045470 0.117828
vn 0.785617 0.604364 0.132474
vn 0.292350 0.951012 0.100535
vn -0.375354 0.921516 0.099583
vn -0.549181 -0.610504 -0.570688
vn -0.525278 -0.669546 0.525159
vn -0.850117 0.461409 0.253779
vn -0.967876 -0.039578 0.248294
vn 0.567909 -0.623869 -0.536905
vn -0.896440 -0.369670 0.244418
vn 0.543512 -0.674385 0.499799
vn 0.004327 0.013391 -0.999901
vn -0.226895 -0.623681 -0.748025
vn -0.713232 -0.067867 -0.697635
vn -0.720025 -0.008489 -0.693896
vn -0.714011 -0.503324 -0.486676
vn 0.410097 -0.872456 0.265784
vn -0.199212 -0.971300 0.129967
vn -0.757540 -0.632561 0.161247
# 419 normals

usemtl Default
f 19/1/19 1/2/1 3/3/3 20/4/20
f 408/5/408 107/6/107 108/7/108 407/8/407
f 392/9/392 410/10/410 389/11/389 396/12/396
f 393/13/393 396/12/396 389/11/389
f 406/14/406 411/15/411 389/16/389 410/17/410
f 4/18/4 2/19/2 18/20/18 21/21/21
f 3/3/3 11/22/11 22/23/22 20/4/20
f 409/24/409 411/25/411 406/26/406 405/27/405
f 4/18/4 21/21/21 23/28/23 15/29/15
f 405/30/405 406/31/406 410/32/410 414/33/414
f 385/34/385 409/35/409 405/36/405 414/37/414
f 385/38/385 389/39/389 411/40/411 409/41/409
f 387/42/387 385/34/385 414/37/414 415/43/415
f 19/44/19 387/42/387 415/43/415 416/45/416
f 15/46/15 17/47/17 412/48/412
f 22/23/22 11/22/11 16/49/16 24/50/24
f 4/51/4 15/46/15 412/48/412
f 2/52/2 4/51/4 412/48/412
f 15/53/15 23/54/23 25/55/25 17/56/17
f 24/57/24 16/58/16 17/56/17 25/55/25
f 18/20/18 26/59/26 28/60/28 21/21/21
f 413/61/413 2/52/2 412/48/412
f 387/62/387 19/1/19 27/63/27 391/64/391
f 31/65/31 20/4/20 22/23/22 32/66/32
f 23/28/23 21/21/21 28/60/28 29/67/29
f 32/66/32 22/23/22 24/50/24 33/68/33
f 23/54/23 29/69/29 30/70/30 25/55/25
f 33/71/33 24/57/24 25/55/25 30/70/30
f 26/59/26 390/72/390 34/73/34 35/74/35
f 26/59/26 35/74/35 36/75/36 28/60/28
f 27/63/27 38/76/38 395/77/395 391/64/391
f 38/76/38 27/63/27 31/65/31 39/78/39
f 29/67/29 28/60/28 36/75/36 37/79/37
f 30/70/30 29/69/29 37/80/37 42/81/42
f 33/71/33 30/70/30 42/81/42 41/82/41
f 31/65/31 32/66/32 40/83/40 39/78/39
f 32/66/32 33/68/33 41/84/41 40/83/40
f 34/73/34 390/72/390 388/85/388 394/86/394
f 34/87/34 394/88/394 397/89/397 43/90/43
f 45/91/45 47/92/47 35/74/35 34/73/34
f 36/75/36 35/74/35 47/92/47 49/93/49
f 37/79/37 36/75/36 49/93/49 51/94/51
f 42/81/42 37/80/37 51/95/51 52/96/52
f 38/97/38 43/90/43 397/89/397 395/98/395
f 46/99/46 44/100/44 43/101/43 38/102/38
f 39/78/39 40/83/40 50/103/50 48/104/48
f 40/83/40 41/84/41 53/105/53 50/103/50
f 41/82/41 42/81/42 52/96/52 53/106/53
f 44/100/44 46/99/46 54/107/54 61/108/61
f 45/109/45 44/100/44 61/108/61 62/110/62
f 47/92/47 45/91/45 62/111/62 55/112/55
f 46/113/46 48/104/48 56/114/56 54/115/54
f 49/93/49 47/92/47 55/112/55 57/116/57
f 48/104/48 50/103/50 58/117/58 56/114/56
f 51/94/51 49/93/49 57/116/57 59/118/59
f 50/103/50 53/105/53 63/119/63 58/117/58
f 52/96/52 51/95/51 59/120/59 60/121/60
f 53/106/53 52/96/52 60/121/60 63/122/63
f 54/115/54 56/114/56 68/123/68 64/124/64
f 61/108/61 54/107/54 64/125/64 66/126/66
f 55/112/55 62/111/62 67/127/67 69/128/69
f 57/116/57 55/112/55 69/128/69 70/129/70
f 56/114/56 58/117/58 65/130/65 68/123/68
f 59/118/59 57/116/57 70/129/70 71/131/71
f 58/117/58 63/119/63 72/132/72 65/130/65
f 60/121/60 59/120/59 71/133/71 73/134/73
f 63/122/63 60/121/60 73/134/73 72/135/72
f 62/110/62 61/108/61 66/126/66 67/136/67
f 64/124/64 68/123/68 78/137/78 76/138/76
f 66/126/66 64/125/64 76/139/76 75/140/75
f 68/123/68 65/130/65 79/141/79 78/137/78
f 65/130/65 72/132/72 81/142/81 79/141/79
f 67/136/67 66/126/66 75/140/75 77/143/77
f 69/128/69 67/127/67 77/144/77 74/145/74
f 70/129/70 69/128/69 74/145/74 80/146/80
f 71/131/71 70/129/70 80/146/80 82/147/82
f 73/134/73 71/133/71 82/148/82 83/149/83
f 72/135/72 73/134/73 83/149/83 81/150/81
f 74/145/74 77/144/77 86/151/86 88/152/88
f 80/146/80 74/145/74 88/152/88 90/153/90
f 75/140/75 76/139/76 85/154/85 84/155/84
f 77/143/77 75/140/75 84/155/84 86/156/86
f 76/139/76 78/157/78 87/158/87 85/154/85
f 78/137/78 79/141/79 89/159/89 87/160/87
f 79/141/79 81/142/81 91/161/91 89/159/89
f 82/147/82 80/146/80 90/153/90 92/162/92
f 81/150/81 83/149/83 93/163/93 91/164/91
f 83/149/83 82/148/82 92/165/92 93/163/93
f 84/155/84 85/154/85 96/166/96 95/167/95
f 86/156/86 84/155/84 95/167/95 97/168/97
f 85/154/85 87/158/87 98/169/98 96/166/96
f 88/152/88 86/151/86 97/170/97 99/171/99
f 87/160/87 89/159/89 100/172/100 98/173/98
f 90/153/90 88/152/88 99/171/99 94/174/94
f 89/159/89 91/161/91 101/175/101 100/172/100
f 92/162/92 90/153/90 94/174/94 102/176/102
f 91/164/91 93/163/93 103/177/103 101/178/101
f 93/163/93 92/165/92 102/179/102 103/177/103
f 407/8/407 94/174/94 99/171/99 408/5/408
f 407/180/407 108/181/108 109/182/109 404/183/404
f 14/184/14 104/185/104 105/186/105 13/187/13
f 386/188/386 111/189/111 104/185/104 14/184/14
f 400/190/400 106/191/106 111/189/111 386/188/386
f 13/192/13 105/193/105 107/6/107 408/5/408
f 401/194/401 112/195/112 106/196/106 400/197/400
f 402/198/402 113/199/113 112/195/112 401/194/401
f 403/200/403 110/201/110 113/202/113 402/203/402
f 404/183/404 109/182/109 110/201/110 403/200/403
f 104/185/104 111/189/111 115/204/115 114/205/114
f 105/186/105 104/185/104 114/205/114 116/206/116
f 107/6/107 105/193/105 116/207/116 119/208/119
f 111/189/111 106/191/106 117/209/117 115/204/115
f 117/210/117 106/196/106 112/195/112 118/211/118
f 108/7/108 107/6/107 119/208/119 121/212/121
f 109/182/109 108/181/108 121/213/121 122/214/122
f 110/201/110 109/182/109 122/214/122 123/215/123
f 113/202/113 110/201/110 123/215/123 120/216/120
f 112/195/112 113/199/113 120/217/120 118/211/118
f 417/218/417 125/219/125 124/220/124 418/221/418
f 418/221/418 124/220/124 126/222/126 419/223/419
f 5/224/5 127/225/127 125/219/125 417/218/417
f 419/226/419 126/227/126 128/228/128 12/229/12
f 6/230/6 129/231/129 127/232/127 5/233/5
f 7/234/7 130/235/130 129/231/129 6/230/6
f 10/236/10 121/212/121 119/208/119 12/229/12
f 8/237/8 132/238/132 130/235/130 7/234/7
f 10/239/10 131/240/131 133/241/133 9/242/9
f 9/242/9 133/241/133 132/243/132 8/244/8
f 141/245/141 139/246/139 128/228/128 126/227/126
f 124/220/124 125/219/125 135/247/135 134/248/134
f 125/219/125 127/225/127 138/249/138 135/247/135
f 127/232/127 129/231/129 136/250/136 138/251/138
f 143/252/143 140/253/140 133/241/133 131/240/131
f 129/231/129 130/235/130 137/254/137 136/250/136
f 137/254/137 130/235/130 132/238/132 384/255/384
f 132/243/132 133/241/133 140/253/140 384/256/384
f 134/257/134 135/258/135 349/259/349 144/260/144
f 134/261/134 144/262/144 348/263/348 141/264/141
f 138/251/138 136/250/136 137/254/137 142/265/142
f 381/266/381 382/267/382 351/268/351 135/269/135
f 139/270/139 382/267/382 376/271/376 143/272/143
f 139/270/139 141/273/141 351/268/351 382/267/382
f 140/274/140 379/275/379 383/276/383 384/277/384
f 379/278/379 140/279/140 143/280/143 371/281/371
f 141/273/141 348/282/348 347/283/347 351/268/351
f 381/284/381 142/265/142 380/285/380 378/286/378
f 144/262/144 350/287/350 345/288/345 348/263/348
f 350/289/350 144/260/144 349/259/349 344/290/344
f 145/291/145 149/292/149 147/293/147 151/294/151
f 149/292/149 145/291/145 150/295/150 148/296/148
f 145/291/145 154/297/154 153/298/153 150/295/150
f 154/297/154 145/291/145 151/294/151 152/299/152
f 146/300/146 149/292/149 148/296/148 156/301/156
f 149/292/149 146/300/146 157/302/157 147/293/147
f 146/300/146 159/303/159 170/304/170 157/302/157
f 159/303/159 146/300/146 156/301/156 163/305/163
f 151/306/151 147/307/147 172/308/172 165/309/165
f 147/307/147 157/310/157 179/311/179 172/308/172
f 148/312/148 150/313/150 166/314/166 164/315/164
f 156/316/156 148/312/148 164/315/164 171/317/171
f 150/313/150 153/318/153 167/319/167 166/314/166
f 152/320/152 151/306/151 165/309/165 168/321/168
f 152/299/152 158/322/158 155/323/155 154/297/154
f 158/324/158 152/320/152 168/321/168 177/325/177
f 153/318/153 160/326/160 176/327/176 167/319/167
f 160/328/160 153/298/153 154/297/154 155/323/155
f 155/323/155 162/329/162 169/330/169 160/328/160
f 162/329/162 155/323/155 158/322/158 161/331/161
f 156/316/156 171/317/171 182/332/182 163/333/163
f 179/311/179 157/310/157 170/334/170 183/335/183
f 161/336/161 158/324/158 177/325/177 187/337/187
f 159/338/159 163/339/163 190/340/190 181/341/181
f 170/342/170 159/338/159 181/341/181 191/343/191
f 160/326/160 169/344/169 185/345/185 176/327/176
f 161/346/161 189/347/189 188/348/188 162/349/162
f 189/350/189 161/336/161 187/337/187 198/351/198
f 169/352/169 162/349/162 188/348/188 192/353/192
f 190/354/190 163/333/163 182/332/182 193/355/193
f 171/356/171 164/357/164 173/358/173 178/359/178
f 164/357/164 166/360/166 174/361/174 173/358/173
f 165/362/165 172/363/172 173/358/173 174/361/174
f 168/364/168 165/362/165 174/361/174 175/365/175
f 166/360/166 167/366/167 175/365/175 174/361/174
f 167/366/167 176/367/176 180/368/180 175/365/175
f 177/369/177 168/364/168 175/365/175 180/368/180
f 185/345/185 169/344/169 192/370/192 196/371/196
f 170/334/170 191/372/191 195/373/195 183/335/183
f 182/374/182 171/356/171 178/359/178 184/375/184
f 172/363/172 179/376/179 178/359/178 173/358/173
f 176/367/176 185/377/185 186/378/186 180/368/180
f 187/379/187 177/369/177 180/368/180 186/378/186
f 179/376/179 183/380/183 184/375/184 178/359/178
f 191/343/191 181/341/181 282/381/282 287/382/287
f 283/383/283 289/384/289 285/385/285 282/386/282
f 193/387/193 182/388/182 184/389/184 194/390/194
f 183/391/183 195/392/195 194/390/194 184/389/184
f 185/393/185 196/394/196 197/395/197 186/396/186
f 187/397/187 186/396/186 197/395/197 198/398/198
f 188/399/188 220/400/220 222/401/222 192/370/192
f 219/402/219 226/403/226 223/404/223 220/405/220
f 227/406/227 239/407/239 233/408/233 219/409/219
f 190/354/190 193/355/193 290/410/290 283/411/283
f 191/372/191 287/412/287 288/413/288 195/373/195
f 196/371/196 192/370/192 222/401/222 224/414/224
f 290/415/290 193/387/193 194/390/194 284/416/284
f 288/417/288 202/418/202 199/419/199 284/420/284
f 198/398/198 197/395/197 221/421/221 227/422/227
f 200/423/200 199/419/199 202/418/202 204/424/204
f 201/425/201 199/419/199 200/423/200 203/426/203
f 203/426/203 200/423/200 221/427/221 224/428/224
f 201/429/201 203/430/203 206/431/206 205/432/205
f 201/425/201 290/433/290 284/420/284 199/419/199
f 283/411/283 290/410/290 201/429/201 205/432/205
f 202/434/202 288/413/288 303/435/303 208/436/208
f 204/437/204 202/434/202 208/436/208 210/438/210
f 237/439/237 206/431/206 203/430/203 224/414/224
f 212/440/212 252/441/252 239/407/239 227/406/227
f 205/442/205 206/443/206 209/444/209 207/445/207
f 206/443/206 237/446/237 211/447/211 209/444/209
f 207/445/207 209/444/209 210/448/210 208/449/208
f 207/445/207 208/449/208 303/450/303 302/451/302
f 210/448/210 209/444/209 211/447/211 212/452/212
f 212/453/212 211/454/211 251/455/251 252/456/252
f 211/454/211 237/457/237 250/458/250 251/455/251
f 213/459/213 214/460/214 217/461/217 216/462/216
f 214/460/214 213/459/213 317/463/317 318/464/318
f 317/465/317 213/466/213 357/467/357 321/468/321
f 213/466/213 216/469/216 362/470/362 357/467/357
f 215/471/215 214/460/214 318/464/318 322/472/322
f 218/473/218 217/461/217 214/460/214 215/471/215
f 215/474/215 322/475/322 354/476/354 361/477/361
f 216/462/216 217/461/217 264/478/264 263/479/263
f 269/480/269 362/470/362 216/469/216 263/481/263
f 217/461/217 218/473/218 265/482/265 264/478/264
f 337/483/337 265/484/265 218/485/218 358/486/358
f 219/409/219 233/408/233 236/487/236 226/488/226
f 220/405/220 223/404/223 225/489/225 222/490/222
f 227/491/227 221/427/221 200/423/200 204/424/204
f 222/401/222 231/492/231 245/493/245 224/414/224
f 223/404/223 228/494/228 229/495/229 225/489/225
f 228/494/228 223/404/223 226/403/226 230/496/230
f 222/401/222 225/497/225 235/498/235 231/492/231
f 230/499/230 226/488/226 236/487/236 242/500/242
f 228/501/228 244/502/244 246/503/246 229/504/229
f 244/502/244 228/501/228 230/505/230 243/506/243
f 229/507/229 240/508/240 235/498/235 225/497/225
f 247/509/247 248/510/248 241/511/241 240/512/240
f 243/513/243 230/499/230 242/500/242 249/514/249
f 231/515/231 232/516/232 238/517/238 245/518/245
f 232/516/232 231/515/231 235/519/235 234/520/234
f 232/516/232 233/521/233 239/522/239 238/517/238
f 233/521/233 232/516/232 234/520/234 236/523/236
f 234/520/234 235/519/235 240/524/240 241/525/241
f 234/520/234 241/525/241 242/526/242 236/523/236
f 238/527/238 239/528/239 252/529/252 255/530/255
f 245/531/245 238/527/238 255/530/255 254/532/254
f 241/511/241 248/510/248 249/533/249 242/534/242
f 243/506/243 261/535/261 262/536/262 244/502/244
f 261/537/261 243/513/243 249/514/249 259/538/259
f 244/502/244 262/536/262 260/539/260 246/503/246
f 247/540/247 246/541/246 260/542/260 258/543/258
f 247/509/247 258/544/258 256/545/256 248/510/248
f 248/510/248 256/545/256 259/546/259 249/533/249
f 251/455/251 250/458/250 263/547/263 264/548/264
f 263/481/263 250/549/250 253/550/253 269/480/269
f 252/456/252 251/455/251 264/548/264 265/551/265
f 265/484/265 337/483/337 257/552/257 252/553/252
f 269/480/269 253/550/253 254/554/254 271/555/271
f 254/532/254 255/530/255 266/556/266 271/557/271
f 255/530/255 252/529/252 257/558/257 266/556/266
f 256/545/256 267/559/267 268/560/268 259/546/259
f 267/559/267 256/545/256 258/544/258 270/561/270
f 266/556/266 257/558/257 337/562/337 272/563/272
f 270/564/270 258/543/258 260/542/260 276/565/276
f 259/538/259 268/566/268 277/567/277 261/537/261
f 276/568/276 260/539/260 262/536/262 278/569/278
f 261/535/261 277/570/277 278/569/278 262/536/262
f 271/557/271 266/556/266 272/563/272 336/571/336
f 267/572/267 275/573/275 274/574/274 268/575/268
f 275/576/275 267/559/267 270/561/270 273/577/273
f 268/566/268 274/578/274 280/579/280 277/567/277
f 273/580/273 270/564/270 276/565/276 279/581/279
f 269/480/269 271/555/271 336/582/336 340/583/340
f 336/584/336 272/585/272 332/586/332 331/587/331
f 331/588/331 338/589/338 344/290/344 336/582/336
f 332/586/332 272/585/272 337/590/337 330/591/330
f 330/592/330 337/593/337 345/288/345 339/594/339
f 273/595/273 333/596/333 334/597/334 275/573/275
f 333/598/333 273/580/273 279/581/279 341/599/341
f 274/578/274 335/600/335 342/601/342 280/579/280
f 335/602/335 274/574/274 275/573/275 334/597/334
f 279/603/279 276/604/276 278/605/278 281/606/281
f 277/607/277 280/608/280 281/606/281 278/605/278
f 341/609/341 279/603/279 281/606/281 346/610/346
f 280/608/280 342/611/342 346/610/346 281/606/281
f 287/612/287 282/613/282 285/614/285 286/615/286
f 283/616/283 297/617/297 295/618/295 289/619/289
f 286/615/286 285/614/285 293/620/293 292/621/292
f 285/385/285 289/384/289 294/622/294 293/623/293
f 286/624/286 291/625/291 288/413/288 287/412/287
f 291/625/291 286/624/286 292/626/292 299/627/299
f 294/628/294 289/619/289 295/618/295 300/629/300
f 291/625/291 299/627/299 301/630/301 296/631/296
f 291/625/291 296/631/296 298/632/298 288/413/288
f 316/633/316 314/634/314 297/635/297 283/636/283
f 288/413/288 310/637/310 312/638/312 303/435/303
f 292/639/292 293/640/293 304/641/304 305/642/305
f 299/627/299 292/626/292 305/643/305 307/644/307
f 288/413/288 298/632/298 315/645/315 310/637/310
f 304/646/304 293/623/293 294/622/294 306/647/306
f 306/648/306 294/649/294 300/650/300 308/651/308
f 295/618/295 296/652/296 301/653/301 300/629/300
f 296/652/296 295/618/295 297/617/297 298/654/298
f 298/655/298 297/635/297 314/634/314 315/656/315
f 299/657/299 307/658/307 309/659/309 301/660/301
f 308/651/308 300/650/300 301/660/301 309/659/309
f 302/661/302 303/662/303 312/663/312 311/664/311
f 305/642/305 304/641/304 328/665/328 329/666/329
f 304/646/304 306/647/306 319/667/319 328/668/328
f 307/644/307 305/643/305 329/669/329 323/670/323
f 319/671/319 306/648/306 308/651/308 313/672/313
f 307/658/307 323/673/323 320/674/320 309/659/309
f 308/651/308 309/659/309 320/674/320 313/672/313
f 315/645/315 354/476/354 322/475/322 310/637/310
f 316/675/316 311/676/311 317/465/317 321/468/321
f 310/637/310 322/475/322 318/677/318 312/638/312
f 311/664/311 312/663/312 318/678/318 317/679/317
f 313/680/313 320/681/320 324/682/324 325/683/325
f 313/680/313 325/683/325 355/684/355 319/685/319
f 314/634/314 326/686/326 327/687/327 315/656/315
f 398/688/398 326/689/326 314/690/314 316/675/316
f 354/476/354 315/645/315 327/691/327 360/692/360
f 319/667/319 355/693/355 370/694/370 328/668/328
f 324/695/324 320/696/320 323/670/323 375/697/375
f 20/4/20 31/65/31 27/63/27 19/1/19
f 321/698/321 357/699/357 365/700/365 356/701/356
f 321/698/321 356/701/356 364/702/364 359/703/359
f 375/697/375 323/670/323 329/669/329 374/704/374
f 325/683/325 324/682/324 353/705/353 352/706/352
f 367/707/367 353/708/353 324/695/324 375/697/375
f 325/683/325 352/706/352 363/709/363 355/684/355
f 326/710/326 352/706/352 353/705/353 327/711/327
f 363/709/363 352/706/352 326/710/326 398/712/398
f 327/691/327 353/708/353 367/707/367 360/692/360
f 329/713/329 328/714/328 370/715/370 374/716/374
f 355/693/355 363/717/363 368/718/368 370/694/370
f 362/470/362 269/480/269 340/583/340 366/719/366
f 332/586/332 330/591/330 335/602/335 334/597/334
f 335/600/335 330/592/330 339/594/339 342/601/342
f 331/588/331 333/598/333 341/599/341 338/589/338
f 333/596/333 331/587/331 332/586/332 334/597/334
f 343/720/343 340/583/340 336/582/336 344/290/344
f 343/721/343 347/283/347 348/282/348 345/722/345
f 399/723/399 350/289/350 344/290/344 338/589/338
f 399/724/399 346/725/346 342/601/342 339/594/339
f 351/268/351 347/283/347 349/726/349 135/269/135
f 361/727/361 354/728/354 356/701/356 365/700/365
f 357/699/357 362/729/362 366/730/366 365/700/365
f 366/730/366 358/731/358 361/727/361 365/700/365
f 359/703/359 364/702/364 369/732/369 368/733/368
f 369/732/369 364/702/364 360/734/360 367/735/367
f 367/707/367 375/697/375 379/278/379 371/281/371
f 368/718/368 372/736/372 377/737/377 370/694/370
f 368/738/368 369/739/369 373/740/373 372/741/372
f 370/715/370 377/742/377 383/276/383 374/716/374
f 371/743/371 143/272/143 376/271/376 373/740/373
f 372/741/372 373/740/373 376/271/376 378/744/378
f 372/736/372 378/286/378 380/285/380 377/737/377
f 374/716/374 383/276/383 379/275/379 375/745/375
f 378/744/378 376/271/376 382/267/382 381/266/381
f 377/737/377 380/285/380 384/255/384 383/746/383
f 385/38/385 387/62/387 391/64/391 389/39/389
f 1/747/1 413/61/413 412/48/412
f 3/748/3 1/747/1 412/48/412
f 11/749/11 3/748/3 412/48/412
f 34/750/34 43/101/43 44/100/44 45/109/45
f 16/751/16 11/749/11 412/48/412
f 392/752/392 394/86/394 388/85/388 410/32/410
f 396/753/396 393/754/393 395/98/395 397/89/397
f 394/88/394 392/755/392 396/753/396 397/89/397
f 316/675/316 321/468/321 359/756/359 398/688/398
f 338/589/338 341/599/341 346/757/346 399/723/399
f 339/594/339 345/288/345 350/287/350 399/724/399
f 38/76/38 39/78/39 48/104/48 46/113/46
f 126/222/126 124/220/124 134/248/134 141/758/141
f 131/759/131 128/228/128 139/246/139 143/760/143
f 384/255/384 380/285/380 142/265/142 137/254/137
f 135/269/135 138/761/138 142/762/142 381/266/381
f 282/381/282 181/341/181 190/340/190 283/763/283
f 220/764/220 188/348/188 189/347/189 219/765/219
f 219/409/219 189/350/189 198/351/198 227/406/227
f 224/766/224 221/421/221 197/395/197 196/394/196
f 284/416/284 194/390/194 195/392/195 288/767/288
f 205/432/205 207/768/207 302/769/302 283/411/283
f 253/550/253 250/549/250 237/439/237 224/414/224
f 227/406/227 204/437/204 210/438/210 212/440/212
f 215/474/215 361/477/361 358/486/358 218/485/218
f 358/731/358 366/730/366 340/770/340 337/771/337
f 240/508/240 229/507/229 246/541/246 247/540/247
f 283/411/283 302/769/302 311/676/311 316/675/316
f 360/734/360 364/702/364 356/701/356 354/728/354
f 398/688/398 359/756/359 368/718/368 363/717/363
f 344/772/344 349/726/349 347/283/347 343/721/343
f 345/773/345 337/771/337 340/770/340 343/774/343
f 367/775/367 371/743/371 373/740/373 369/739/369
f 389/39/389 391/64/391 395/77/395 393/776/393
f 224/414/224 245/493/245 254/554/254 253/550/253
f 17/47/17 16/751/16 412/48/412
f 413/61/413 1/747/1 19/44/19 416/45/416
f 2/19/2 413/777/413 416/778/416 18/20/18
f 388/85/388 415/779/415 414/33/414 410/32/410
f 390/72/390 416/778/416 415/779/415 388/85/388
f 26/59/26 18/20/18 416/778/416 390/72/390
f 404/780/404 102/176/102 94/174/94 407/8/407
f 403/200/403 103/177/103 102/179/102 404/183/404
f 402/203/402 101/178/101 103/177/103 403/200/403
f 401/194/401 100/172/100 101/175/101 402/198/402
f 400/197/400 98/173/98 100/172/100 401/194/401
f 386/188/386 96/166/96 98/169/98 400/190/400
f 14/184/14 95/167/95 96/166/96 386/188/386
f 13/187/13 97/168/97 95/167/95 14/184/14
f 408/5/408 99/171/99 97/170/97 13/192/13
f 12/229/12 128/228/128 131/759/131 10/236/10
f 9/242/9 122/214/122 121/213/121 10/239/10
f 8/244/8 123/215/123 122/214/122 9/242/9
f 7/781/7 120/216/120 123/215/123 8/244/8
f 6/230/6 118/211/118 120/217/120 7/234/7
f 5/233/5 117/210/117 118/211/118 6/230/6
f 417/218/417 115/204/115 117/209/117 5/224/5
f 418/221/418 114/205/114 115/204/115 417/218/417
f 419/223/419 116/206/116 114/205/114 418/221/418
f 12/229/12 119/208/119 116/207/116 419/226/419

# 432 faces
