# ProBuilder 6.0.5
# https://unity3d.com/unity/features/worldbuilding/probuilder
# 08/06/2025 17:15:45

mtllib ./fireplace_trigger.mtl
o fireplace_trigger

g Cylinder
v 0.6870871 -0.1339952 0
v 0.6870871 0.1339952 0
v 0.5950348 -0.1339952 0.3479479
v 0.5950348 0.1339952 0.3479479
v 0.3435435 -0.1339952 0.6026635
v 0.3435435 0.1339952 0.6026635
v -3.003353E-08 -0.1339952 0.6958959
v -3.003353E-08 0.1339952 0.6958959
v -0.3435436 -0.1339952 0.6026635
v -0.3435436 0.1339952 0.6026635
v -0.5950348 -0.1339952 0.347948
v -0.5950348 0.1339952 0.347948
v -0.6870871 -0.1339952 -6.083715E-08
v -0.6870871 0.1339952 -6.083715E-08
v -0.5950348 -0.1339952 -0.3479479
v -0.5950348 0.1339952 -0.3479479
v -0.3435435 -0.1339952 -0.6026635
v -0.3435435 0.1339952 -0.6026635
v 8.193431E-09 -0.1339952 -0.6958959
v 8.193431E-09 0.1339952 -0.6958959
v 0.3435435 -0.1339952 -0.6026635
v 0.3435435 0.1339952 -0.6026635
v 0.5950348 -0.1339952 -0.347948
v 0.5950348 0.1339952 -0.347948
v 0 -0.1339952 0
v 0 0.1339952 0

vt -0.1757284 -0.1339952
vt -0.1757284 0.1339952
vt 0.1841902 -0.1339952
vt 0.1841902 0.1339952
vt -0.1704663 -0.1339952
vt -0.1704663 0.1339952
vt 0.1874833 -0.1339952
vt 0.1874833 0.1339952
vt -0.173707 -0.1339952
vt -0.173707 0.1339952
vt 0.1822627 -0.1339952
vt 0.1822627 0.1339952
vt -0.1822628 -0.1339952
vt -0.1822628 0.1339952
vt 0.1737069 -0.1339952
vt 0.1737069 0.1339952
vt -0.1874832 -0.1339952
vt -0.1874832 0.1339952
vt 0.1704663 -0.1339952
vt 0.1704663 0.1339952
vt -0.1841903 -0.1339952
vt -0.1841903 0.1339952
vt 0.1757284 -0.1339952
vt 0.1757284 0.1339952
vt -0.6870871 0
vt 0 0
vt -0.5950348 0.3479479
vt 0.6870871 0
vt 0.5950348 0.3479479
vt -0.3435435 0.6026635
vt 0.3435435 0.6026635
vt 3.003353E-08 0.6958959
vt 0.5950348 -0.3479479
vt -0.5950348 -0.3479479
vt 0.3435435 -0.6026635
vt -0.3435435 -0.6026635
vt -8.193431E-09 -0.6958959

vn 1 0 -3.082763E-08
vn 0.8683997 0 0.4958649
vn 0.5041389 0 0.8636226
vn -7.720072E-08 0 1
vn -0.5041389 0 0.8636226
vn -0.8683997 0 0.4958649
vn -1 0 -6.165526E-08
vn -0.8683996 0 -0.4958649
vn -0.5041389 0 -0.8636226
vn 0 0 -1
vn 0.5041388 0 -0.8636227
vn 0.8683996 0 -0.495865
vn 0 -1 0
vn 0 1 0

usemtl DefaultHDMaterial
f 3/27/13 25/26/13 1/25/13
f 5/30/13 25/26/13 3/27/13
f 7/32/13 25/26/13 5/30/13
f 9/31/13 25/26/13 7/32/13
f 11/29/13 25/26/13 9/31/13
f 13/28/13 25/26/13 11/29/13
f 15/33/13 25/26/13 13/28/13
f 17/35/13 25/26/13 15/33/13
f 19/37/13 25/26/13 17/35/13
f 21/36/13 25/26/13 19/37/13
f 23/34/13 25/26/13 21/36/13
f 1/25/13 25/26/13 23/34/13
f 2/28/14 26/26/14 4/29/14
f 4/29/14 26/26/14 6/31/14
f 6/31/14 26/26/14 8/32/14
f 8/32/14 26/26/14 10/30/14
f 10/30/14 26/26/14 12/27/14
f 12/27/14 26/26/14 14/25/14
f 14/25/14 26/26/14 16/34/14
f 16/34/14 26/26/14 18/36/14
f 18/36/14 26/26/14 20/37/14
f 20/37/14 26/26/14 22/35/14
f 22/35/14 26/26/14 24/33/14
f 24/33/14 26/26/14 2/28/14
f 1/1/1 2/2/1 4/4/2
f 4/4/2 3/3/2 1/1/1
f 3/5/2 4/6/2 6/8/3
f 6/8/3 5/7/3 3/5/2
f 5/9/3 6/10/3 8/12/4
f 8/12/4 7/11/4 5/9/3
f 7/13/4 8/14/4 10/16/5
f 10/16/5 9/15/5 7/13/4
f 9/17/5 10/18/5 12/20/6
f 12/20/6 11/19/6 9/17/5
f 11/21/6 12/22/6 14/24/7
f 14/24/7 13/23/7 11/21/6
f 13/1/7 14/2/7 16/4/8
f 16/4/8 15/3/8 13/1/7
f 15/5/8 16/6/8 18/8/9
f 18/8/9 17/7/9 15/5/8
f 17/9/9 18/10/9 20/12/10
f 20/12/10 19/11/10 17/9/9
f 19/13/10 20/14/10 22/16/11
f 22/16/11 21/15/11 19/13/10
f 21/17/11 22/18/11 24/20/12
f 24/20/12 23/19/12 21/17/11
f 23/21/12 24/22/12 2/24/1
f 2/24/1 1/23/1 23/21/12

